<svg xmlns="http://www.w3.org/2000/svg" width="23" height="23" viewBox="0 0 23 23"><g transform="translate(0 -5.365)"><g transform="translate(0 5.365)"><path d="M21.457,11.236a11.6,11.6,0,0,0-4.185-4.29A11.038,11.038,0,0,0,11.5,5.365,11.039,11.039,0,0,0,5.728,6.946a11.6,11.6,0,0,0-4.185,4.29A11.754,11.754,0,0,0,0,17.153a11.65,11.65,0,0,0,2.194,6.93,11.285,11.285,0,0,0,5.667,4.259.657.657,0,0,0,.6-.107.607.607,0,0,0,.195-.46q0-.046-.008-.829T8.64,25.58l-.344.061a4.288,4.288,0,0,1-.831.054,6.182,6.182,0,0,1-1.041-.107,2.3,2.3,0,0,1-1-.46,1.947,1.947,0,0,1-.659-.944l-.15-.353a3.854,3.854,0,0,0-.472-.783,1.82,1.82,0,0,0-.651-.583l-.1-.077a1.11,1.11,0,0,1-.195-.184.845.845,0,0,1-.135-.215q-.045-.108.075-.177a.95.95,0,0,1,.434-.069l.3.046a2.163,2.163,0,0,1,.741.368,2.454,2.454,0,0,1,.726.8,2.684,2.684,0,0,0,.831.959,1.734,1.734,0,0,0,.981.33A4.157,4.157,0,0,0,8,24.168a2.928,2.928,0,0,0,.674-.23A2.512,2.512,0,0,1,9.4,22.356a10.026,10.026,0,0,1-1.535-.276,6.029,6.029,0,0,1-1.407-.6,4.056,4.056,0,0,1-1.205-1.028,4.99,4.99,0,0,1-.786-1.612,7.843,7.843,0,0,1-.307-2.3,4.54,4.54,0,0,1,1.183-3.162,4.222,4.222,0,0,1,.1-3.131,2.052,2.052,0,0,1,1.288.207,8.9,8.9,0,0,1,1.25.591q.4.245.636.414a10.559,10.559,0,0,1,5.75,0l.569-.368a7.975,7.975,0,0,1,1.377-.676,1.919,1.919,0,0,1,1.213-.169,4.181,4.181,0,0,1,.12,3.131,4.541,4.541,0,0,1,1.183,3.162,7.931,7.931,0,0,1-.307,2.31,4.8,4.8,0,0,1-.793,1.612,4.21,4.21,0,0,1-1.213,1.021,6.04,6.04,0,0,1-1.408.6,10.016,10.016,0,0,1-1.535.277,2.772,2.772,0,0,1,.778,2.179v3.238a.619.619,0,0,0,.187.46.638.638,0,0,0,.591.107,11.283,11.283,0,0,0,5.668-4.259A11.653,11.653,0,0,0,23,17.152,11.764,11.764,0,0,0,21.457,11.236Z" transform="translate(0 -5.365)" fill="#747474"/></g></g></svg>