<svg xmlns="http://www.w3.org/2000/svg" width="23" height="23" viewBox="0 0 23 23"><g transform="translate(0 0.001)"><g transform="translate(0 -0.001)"><path d="M11.5,23A11.5,11.5,0,0,1,7.024.9,11.5,11.5,0,0,1,15.976,22.1,11.428,11.428,0,0,1,11.5,23Zm2.73-12.126a1.211,1.211,0,0,1,1.069.518,2.4,2.4,0,0,1,.323,1.351v4.424h2.749V12.425c0-2.33-1.183-3.721-3.164-3.721a2.716,2.716,0,0,0-2.477,1.366V8.9H9.98c.036.761,0,8.192,0,8.267h2.749V12.549a1.822,1.822,0,0,1,.091-.67,1.718,1.718,0,0,1,.495-.688A1.411,1.411,0,0,1,14.23,10.874ZM5.712,8.9h0v8.268H8.46V8.9ZM7.1,4.914a1.433,1.433,0,1,0-.036,2.857h.018A1.433,1.433,0,1,0,7.1,4.914Z" fill="#747474"/></g></g></svg>