<svg xmlns="http://www.w3.org/2000/svg" xmlns:xlink="http://www.w3.org/1999/xlink" width="38.5" height="37.538" viewBox="0 0 38.5 37.538"><defs><radialGradient id="a" cx="35.75" cy="154.185" r="27.574" gradientTransform="translate(0.299 -0.071) scale(0.973 0.942)" gradientUnits="userSpaceOnUse"><stop offset="0" stop-color="#34364e" stop-opacity="0.98"/><stop offset="1" stop-color="#0c0824"/></radialGradient></defs><g transform="translate(0 -130.746)"><path d="M24.8,155.549H60.095v34.329H24.8Z" transform="translate(-23.199 -23.199)" fill="url(#a)"/><path d="M1.6,132.35H36.9v34.329H1.6ZM0,168.284H38.5V130.746H0Zm25.955-22.138c-1.267,0-1.7.642-1.7,1.171,0,.577.289.979,1.989,1.861,2.519,1.219,3.3,2.39,3.3,4.107,0,2.567-1.957,3.946-4.6,3.946a6.979,6.979,0,0,1-3.289-.69c-.112-.048-.128-.128-.128-.257v-2.358c0-.16.08-.209.193-.128a5.954,5.954,0,0,0,3.224.946c1.267,0,1.8-.529,1.8-1.251,0-.577-.369-1.091-1.989-1.925-2.278-1.091-3.224-2.2-3.224-4.042,0-2.069,1.62-3.786,4.427-3.786a7.376,7.376,0,0,1,2.871.449.355.355,0,0,1,.16.321v2.2c0,.128-.08.209-.241.16a5.419,5.419,0,0,0-2.791-.722Zm-13.8,1.909c.369.032.658.032,1.3.032,1.877,0,3.641-.658,3.641-3.208,0-2.037-1.267-3.064-3.4-3.064-.642,0-1.251.032-1.54.048ZM9.3,139.537c0-.112.225-.193.353-.193,1.027-.048,2.551-.08,4.139-.08,4.444,0,6.176,2.438,6.176,5.55,0,4.075-2.952,5.823-6.577,5.823-.61,0-.818-.032-1.251-.032v6.16c0,.128-.048.192-.192.192H9.5c-.128,0-.193-.048-.193-.192V139.537Z" fill="#31c5f0"/></g></svg>