<svg xmlns="http://www.w3.org/2000/svg" width="40" height="40" viewBox="0 0 40 40"><circle cx="20" cy="20" r="20" fill="#6e64c3"/><path d="M133.11,103.408l-6.31-2.55-11.115,10.77-6.715-5.094-2.547,1.274.033,13.458L122.6,137.408a22.869,22.869,0,0,0,20.05-22.693q0-.931-.074-1.843Z" transform="translate(-102.648 -97.58)" fill="#5046af"/><path d="M127.386,102.874l-4.957-2.016-8.731,8.514-5.275-4.027-2,1.007.026,10.639,2,1.007,5.275-4.027,8.731,8.514,4.957-2.016ZM108.95,113.924v-4.507l2.475,2.253h.026Zm12.983,1.5-4.976-3.752h-.026l5-3.752v7.5Z" transform="translate(-96.918 -91.85)" fill="#fff"/></svg>