<svg xmlns="http://www.w3.org/2000/svg" width="38.5" height="37.538" viewBox="0 0 38.5 37.538"><path d="M10,10H45.292V44.329H10Z" transform="translate(-8.396 -8.396)" fill="#2e001e"/><path d="M0,0V37.538H38.5V0ZM1.6,1.6H36.9V35.933H1.6Z" fill="#ff2bc2"/><path d="M65.915,62.366a2.2,2.2,0,0,0-.93-.16c-2.021,0-3.369,1.556-3.369,4.139,0,2.952,1.38,4.139,3.176,4.139a3.026,3.026,0,0,0,1.107-.176V62.366Zm-7.187,4.107c0-3.738,2.406-6.657,6.352-6.657a7.113,7.113,0,0,1,.834.032V55.676a.161.161,0,0,1,.16-.16h2.583c.128,0,.16.048.16.128V70.306a11.426,11.426,0,0,0,.08,1.572c0,.112,0,.128-.1.176a9.556,9.556,0,0,1-4.107.93C61.215,72.985,58.728,70.836,58.728,66.473Zm-5.47-2.6,4.492,8.711c.08.128.032.257-.1.257H54.862a.315.315,0,0,1-.337-.209q-1.54-3.176-3.144-6.593h-.032c-.962,2.15-2.021,4.492-3.048,6.609a.308.308,0,0,1-.289.176H45.35c-.16,0-.176-.128-.1-.225l4.4-8.454L45.4,55.741a.142.142,0,0,1,.112-.241h2.759c.16,0,.241.032.289.176,1.011,2.134,2.037,4.235,3,6.385h.032c.93-2.118,1.957-4.251,2.936-6.353.08-.128.128-.209.289-.209H57.4c.128,0,.176.1.1.241Z" transform="translate(-37.955 -46.597)" fill="#ff2bc2"/></svg>