<svg xmlns="http://www.w3.org/2000/svg" xmlns:xlink="http://www.w3.org/1999/xlink" width="1125.946" height="613.845" viewBox="0 0 1125.946 613.845"><defs><linearGradient id="a" x1="-0.863" y1="1" x2="-0.863" gradientUnits="objectBoundingBox"><stop offset="0" stop-color="gray" stop-opacity="0.251"/><stop offset="0.54" stop-color="gray" stop-opacity="0.122"/><stop offset="1" stop-color="gray" stop-opacity="0.102"/></linearGradient></defs><g transform="translate(-100.5 -168.655)"><text transform="translate(100.5 719.5)" fill="#040410" font-size="300" font-family="Impact"><tspan x="0" y="0">03</tspan></text><g transform="translate(389.037 168.604)"><ellipse cx="65.451" cy="13.981" rx="65.451" ry="13.981" transform="translate(270.824 402.889)" fill="#6c63ff" opacity="0.1"/><path d="M621.694,411.848c-13,10.788-31.508,15.252-49.4,18.072l-3.012.459C538,435.047,506.091,436,474.332,436.937c-88.58,2.622-177.39,5.239-265.736-.806-39.07-2.67-79.107-7.348-113.349-23.337l-.892-.422c-.443-.208-.886-.417-1.33-.636a119.684,119.684,0,0,1-17.41-10.195c-9.778-6.975-17.853-15.487-22.12-25.586-6.686-15.839-3.151-33.644,4.486-49.131S77.1,297.388,87,282.8c2.905-4.272,5.661-8.7,8.224-13.249,16.021-28.5,23.967-61.483,7.172-88.949a122.07,122.07,0,0,0-7.172-10.147c-4.1-5.34-8.262-10.681-11.076-16.592C77.587,140.11,79,124.639,81.389,109.942c3.2-19.54,9.105-40.587,27.439-52.795,19.049-12.678,46.087-12.037,69.729-7.476,36.758,7.044,70.685,21.789,104.933,35.086s70.145,25.409,107.8,26.712c33.249,1.159,72.036-7.476,94.113-29.949,21.441-21.815,61.734-23.466,90.786-10.291,27.722,12.571,45.649,39.177,44.325,65.75-1.687,33.164-29.335,59.721-51.214,87.956-3.637,4.694-7.119,9.442-10.3,14.269-10.371,15.77-17.7,34.712-10.563,51.737,4.005,9.533,11.647,16.806,20.859,23.156,20.64,14.221,49.131,23.791,61.948,43.7C642.286,374.973,638.2,398.15,621.694,411.848Z" transform="translate(-50 -46.63)" fill="#6c63ff" opacity="0.1"/><ellipse cx="30.445" cy="5.853" rx="30.445" ry="5.853" transform="translate(488.887 370.585)" fill="#6c63ff"/><ellipse cx="3.546" cy="4.641" rx="3.546" ry="4.641" transform="translate(515.279 369.309)" fill="#3f3d56"/><ellipse cx="3.546" cy="4.641" rx="3.546" ry="4.641" transform="translate(515.279 363.637)" fill="#3f3d56"/><ellipse cx="3.546" cy="4.641" rx="3.546" ry="4.641" transform="translate(515.279 357.961)" fill="#3f3d56"/><ellipse cx="3.546" cy="4.641" rx="3.546" ry="4.641" transform="translate(515.279 352.289)" fill="#3f3d56"/><ellipse cx="3.546" cy="4.641" rx="3.546" ry="4.641" transform="translate(515.279 346.618)" fill="#3f3d56"/><ellipse cx="3.546" cy="4.641" rx="3.546" ry="4.641" transform="translate(515.279 340.946)" fill="#3f3d56"/><ellipse cx="3.546" cy="4.641" rx="3.546" ry="4.641" transform="translate(515.279 335.275)" fill="#3f3d56"/><path d="M1019.918,586.413a16.593,16.593,0,0,0,1.319-1.944l-9.314-1.527,10.072.075a16.972,16.972,0,0,0,.326-13.458l-13.517,7.023,12.464-9.159a16.982,16.982,0,1,0-28.042,19,16.888,16.888,0,0,0-1.939,3.1l12.091,6.286-12.892-4.326a16.978,16.978,0,0,0,2.74,15.947,16.982,16.982,0,1,0,26.7,0,16.972,16.972,0,0,0,0-21Z" transform="translate(-487.823 -285.311)" fill="#6c63ff"/><path d="M989.61,629.852a16.917,16.917,0,0,0,3.637,10.5,16.982,16.982,0,1,0,26.7,0C1022.213,637.462,989.61,627.945,989.61,629.852Z" transform="translate(-487.843 -318.251)" opacity="0.1"/><path d="M144.317,715.438c0,2.985-11.647,5.452-26.7,5.8h-.892c-.443-.208-.886-.416-1.33-.636A119.682,119.682,0,0,1,98,710.434c3.658-.427,7.818-.716,12.283-.812h.6c.972,0,1.96-.032,2.959-.032h3.765C132.67,709.98,144.317,712.479,144.317,715.438Z" transform="translate(-72.384 -355.523)" fill="#6c63ff"/><ellipse cx="3.546" cy="4.641" rx="3.546" ry="4.641" transform="translate(37.429 352.786)" fill="#3f3d56"/><ellipse cx="3.546" cy="4.641" rx="3.546" ry="4.641" transform="translate(37.429 347.114)" fill="#3f3d56"/><ellipse cx="3.546" cy="4.641" rx="3.546" ry="4.641" transform="translate(37.429 341.443)" fill="#3f3d56"/><ellipse cx="3.546" cy="4.641" rx="3.546" ry="4.641" transform="translate(37.429 335.771)" fill="#3f3d56"/><ellipse cx="3.546" cy="4.641" rx="3.546" ry="4.641" transform="translate(37.429 330.1)" fill="#3f3d56"/><ellipse cx="3.546" cy="4.641" rx="3.546" ry="4.641" transform="translate(37.429 324.429)" fill="#3f3d56"/><ellipse cx="3.546" cy="4.641" rx="3.546" ry="4.641" transform="translate(37.429 318.752)" fill="#3f3d56"/><path d="M125.145,555.5a17.261,17.261,0,0,0,1.324-1.939l-9.319-1.517,10.077.075a16.983,16.983,0,0,0,.32-13.452l-13.511,7.012,12.464-9.164a16.982,16.982,0,1,0-28.048,19,17.321,17.321,0,0,0-1.939,3.1l12.091,6.248-12.892-4.31a17.02,17.02,0,0,0,2.74,15.947,16.982,16.982,0,1,0,26.7,0,16.972,16.972,0,0,0,0-21Z" transform="translate(-70.899 -270.921)" fill="#6c63ff"/><path d="M94.83,598.911a16.913,16.913,0,0,0,3.631,10.5,16.982,16.982,0,1,0,26.7,0C127.427,606.522,94.83,597.005,94.83,598.911Z" transform="translate(-70.906 -303.834)" opacity="0.1"/><g transform="translate(99.04 3.255)" opacity="0.2"><path d="M337.08,588.249a13.285,13.285,0,0,1-.107,1.474q-6.216-2.5-12.24-5.3a9.927,9.927,0,0,1-5.661-2.761c-1.17-.587-2.334-1.2-3.493-1.81a14.3,14.3,0,0,1,.887-1.6c2.243-3.557,5.661-5.784,9.426-5.661s7.023,2.553,9.041,6.227A18.355,18.355,0,0,1,337.08,588.249Z" transform="translate(-272.808 -294.937)" fill="#3f3d56"/><path d="M336.616,553.324a18.457,18.457,0,0,1-2.74,9.25c-2.248,3.546-5.661,5.773-9.426,5.65-.262,0-.534-.032-.774-.053a9.928,9.928,0,0,1-5.661-2.761,13.5,13.5,0,0,1-2.606-3.4A19.129,19.129,0,0,1,316,543.317c2.248-3.557,5.661-5.784,9.426-5.661s7.023,2.553,9.041,6.227a18.407,18.407,0,0,1,2.152,9.442Z" transform="translate(-271.724 -278.66)" fill="#3f3d56"/><ellipse cx="15.289" cy="11.679" rx="15.289" ry="11.679" transform="translate(41.63 270.523) rotate(-88.19)" fill="#3f3d56"/><ellipse cx="15.289" cy="11.679" rx="15.289" ry="11.679" transform="translate(42.219 251.846) rotate(-88.19)" fill="#3f3d56"/><ellipse cx="15.289" cy="11.679" rx="15.289" ry="11.679" transform="translate(42.807 233.168) rotate(-88.19)" fill="#3f3d56"/><path d="M250.778,141.747a56.49,56.49,0,0,1-4.144-6.537l30.824-4.069-33.153-.8a56.031,56.031,0,0,1,.331-44.325L288.428,110.5,248.3,79.019a55.94,55.94,0,1,1,90.369,65.5,56.136,56.136,0,0,1,6.04,10.392l-40.464,19.428,42.9-12.908a55.994,55.994,0,0,1-10.681,52.218,55.94,55.94,0,1,1-87.881-2.772,55.93,55.93,0,0,1,2.179-69.131Z" transform="translate(-235.488 -52.682)" fill="#6c63ff"/><path d="M349.553,289.287A55.694,55.694,0,0,1,336.5,323.466a55.94,55.94,0,1,1-87.907-2.761C241.422,310.958,349.751,283.012,349.553,289.287Z" transform="translate(-235.504 -162.508)" opacity="0.1"/></g><g transform="translate(380.519 47.765)" opacity="0.2"><path d="M834.83,517.436a10.364,10.364,0,0,1-.075,1.068q-4.438-1.757-8.71-3.77a7.108,7.108,0,0,1-4.032-1.965c-.828-.422-1.661-.854-2.483-1.287a10.554,10.554,0,0,1,.63-1.138c1.6-2.531,4.026-4.112,6.707-4.027a7.807,7.807,0,0,1,6.435,4.432A13.085,13.085,0,0,1,834.83,517.436Z" transform="translate(-789.111 -308.568)" fill="#3f3d56"/><path d="M834.512,492.527a13.114,13.114,0,0,1-1.949,6.585c-1.6,2.521-4.027,4.107-6.707,4.021l-.534-.037a7.108,7.108,0,0,1-4.032-1.965,9.786,9.786,0,0,1-1.853-2.424,13.623,13.623,0,0,1,.417-13.287c1.6-2.531,4.032-4.117,6.707-4.032a7.807,7.807,0,0,1,6.435,4.432,13.11,13.11,0,0,1,1.517,6.707Z" transform="translate(-788.354 -296.952)" fill="#3f3d56"/><ellipse cx="10.878" cy="8.31" rx="10.878" ry="8.31" transform="translate(29.633 192.649) rotate(-88.19)" fill="#3f3d56"/><ellipse cx="10.878" cy="8.31" rx="10.878" ry="8.31" transform="translate(30.048 179.359) rotate(-88.19)" fill="#3f3d56"/><ellipse cx="10.878" cy="8.31" rx="10.878" ry="8.31" transform="translate(30.469 166.069) rotate(-88.19)" fill="#3f3d56"/><path d="M773.432,199.563a39.276,39.276,0,0,1-2.948-4.651l21.938-2.894-23.609-.571a39.876,39.876,0,0,1,.229-31.545l31.139,17.4-28.517-22.392a39.812,39.812,0,1,1,64.3,46.6,39.866,39.866,0,0,1,4.3,7.4L811.487,222.74l30.531-9.185a39.813,39.813,0,0,1-7.594,37.158,39.807,39.807,0,1,1-62.546-1.971A39.813,39.813,0,0,1,773.432,199.563Z" transform="translate(-762.569 -136.028)" fill="#6c63ff"/><path d="M843.716,304.656a39.623,39.623,0,0,1-9.292,24.331,39.807,39.807,0,1,1-62.546-1.971C766.761,320.074,843.855,300.192,843.716,304.656Z" transform="translate(-762.569 -214.302)" opacity="0.1"/></g><g transform="translate(266.641 6.198)" opacity="0.2"><path d="M621.65,439.386a10.383,10.383,0,0,1-.08,1.068q-4.438-1.757-8.71-3.77a7.093,7.093,0,0,1-4.027-1.965c-.833-.422-1.661-.855-2.483-1.287a10.15,10.15,0,0,1,.625-1.138,7.223,7.223,0,0,1,13.143.406A13.085,13.085,0,0,1,621.65,439.386Z" transform="translate(-575.898 -230.632)" fill="#3f3d56"/><path d="M621.252,414.477a13.117,13.117,0,0,1-1.95,6.585c-1.6,2.521-4.026,4.107-6.707,4.021a2.5,2.5,0,0,1-.534-.037,7.093,7.093,0,0,1-4.027-1.965,9.671,9.671,0,0,1-1.859-2.425,13.608,13.608,0,0,1,.422-13.287c1.6-2.531,4.026-4.117,6.707-4.032a7.733,7.733,0,0,1,6.409,4.432A13.106,13.106,0,0,1,621.252,414.477Z" transform="translate(-575.105 -219.016)" fill="#3f3d56"/><ellipse cx="10.878" cy="8.31" rx="10.878" ry="8.31" transform="translate(29.223 192.048) rotate(-88.282)" fill="#3f3d56"/><ellipse cx="10.878" cy="8.31" rx="10.878" ry="8.31" transform="translate(30.045 179.244) rotate(-88.19)" fill="#3f3d56"/><ellipse cx="10.878" cy="8.31" rx="10.878" ry="8.31" transform="translate(30.471 165.949) rotate(-88.19)" fill="#3f3d56"/><path d="M560.209,121.591a39.994,39.994,0,0,1-2.948-4.651l21.938-2.894-23.626-.571a39.85,39.85,0,0,1,.235-31.546l31.15,17.426L558.446,76.962a39.807,39.807,0,1,1,64.309,46.6,39.934,39.934,0,0,1,4.309,7.4L598.3,144.79l30.525-9.185a39.813,39.813,0,0,1-7.594,37.158,39.807,39.807,0,1,1-62.568-1.992,39.823,39.823,0,0,1,1.549-49.2Z" transform="translate(-549.34 -58.191)" fill="#6c63ff"/><path d="M630.481,226.606a39.627,39.627,0,0,1-9.292,24.331,39.807,39.807,0,1,1-62.541-1.992C553.526,242.029,630.62,222.142,630.481,226.606Z" transform="translate(-549.327 -136.366)" opacity="0.1"/></g><path d="M608.656,384.5V500.772c-31.278,4.667-63.187,5.618-94.946,6.558-88.58,2.622-177.39,5.239-265.736-.806-39.07-2.67-79.107-7.348-113.349-23.337V339.937c.128-98.8-.406,0,0-99.1V205.28a7.53,7.53,0,0,1,7.53-7.53H601.126a7.53,7.53,0,0,1,7.53,7.53v90.054C608.976,384.262,608.442,295.612,608.656,384.5Z" transform="translate(-89.377 -117.023)" fill="#efefef"/><rect width="196.984" height="15.252" rx="5.22" transform="translate(183.771 116.31)" fill="#6c63ff" opacity="0.3"/><path d="M733.5,275.973h-.326l-.123-.1a2.724,2.724,0,0,0,.635-1.736,2.638,2.638,0,1,0-2.627,2.67,2.718,2.718,0,0,0,1.73-.63l.117.1v.31l2.035,2.04.609-.609Zm-2.441,0a1.827,1.827,0,1,1,1.3-.537,1.837,1.837,0,0,1-1.3.537Z" transform="translate(-366.133 -151.402)" fill="#444053"/><rect width="18.381" height="6.355" rx="3.178" transform="translate(118.987 263.41)" fill="#3f3d56" opacity="0.7"/><rect width="28.592" height="6.355" rx="3.178" transform="translate(118.987 279.297)" fill="#6c63ff" opacity="0.3"/><rect width="57.19" height="6.355" rx="3.178" transform="translate(118.987 271.356)" fill="#6c63ff" opacity="0.3"/><path d="M210.064,559.487a3.066,3.066,0,0,0-3.1,3.039,2.072,2.072,0,0,1-2.067,2.024,5.34,5.34,0,0,0,4.128,2.029,4.1,4.1,0,0,0,4.139-4.054A3.071,3.071,0,0,0,210.064,559.487ZM224.232,550l-1.389-1.362a1.036,1.036,0,0,0-1.453,0l-9.26,9.078,2.841,2.787,9.25-9.078a.993.993,0,0,0,.011-1.426Z" transform="translate(-122.195 -280.387)" fill="#6c63ff"/><rect width="18.381" height="6.355" rx="3.178" transform="translate(118.987 184.618)" fill="#3f3d56" opacity="0.7"/><rect width="28.592" height="6.355" rx="3.178" transform="translate(118.987 200.506)" fill="#6c63ff" opacity="0.3"/><rect width="57.19" height="6.355" rx="3.178" transform="translate(118.987 192.559)" fill="#6c63ff" opacity="0.3"/><path d="M224.293,410.778l-8.107-8.16a5.779,5.779,0,0,0-1.34-6.184,5.874,5.874,0,0,0-6.6-1.164l3.834,3.856-2.67,2.67-3.909-3.834a5.8,5.8,0,0,0,1.159,6.627,5.693,5.693,0,0,0,6.147,1.346L220.9,414.1a.86.86,0,0,0,1.25,0l2.051-2.061a.807.807,0,0,0,.091-1.255Z" transform="translate(-122.213 -208.809)" fill="#6c63ff"/><rect width="18.381" height="6.355" rx="3.178" transform="translate(272.127 263.41)" fill="#3f3d56" opacity="0.7"/><rect width="28.592" height="6.355" rx="3.178" transform="translate(272.127 279.297)" fill="#6c63ff" opacity="0.3"/><rect width="57.19" height="6.355" rx="3.178" transform="translate(272.127 271.356)" fill="#6c63ff" opacity="0.3"/><path d="M501.514,564.07a5.34,5.34,0,0,1-5.281,0c-2.067.635-3.332,2.718-3.8,4.561h12.881C504.846,566.788,503.586,564.706,501.514,564.07Zm-2.638-9.81a4.641,4.641,0,1,0,4.641,4.635A4.641,4.641,0,0,0,498.876,554.26Zm0,8.171a3.584,3.584,0,0,1-3.242-2.211h6.483a3.583,3.583,0,0,1-3.242,2.211Z" transform="translate(-256.174 -283.144)" fill="#6c63ff"/><path d="M516.373,559.422a5.378,5.378,0,0,1-4.486.369,6.415,6.415,0,0,1-1.228,1.527,6,6,0,0,1,2.617,2.312h6.894a5.725,5.725,0,0,0-3.8-4.208Zm-2.638-9.816a4.651,4.651,0,0,0-3.914,2.136,5.756,5.756,0,0,1,2.75,3.813h4.406a3.588,3.588,0,0,1-3.241,2.2,3.2,3.2,0,0,1-1.111-.2,6.225,6.225,0,0,1-.288,1.105,4.465,4.465,0,0,0,1.4.214,4.641,4.641,0,0,0,0-9.282Z" transform="translate(-264.277 -280.968)" fill="#6c63ff"/><rect width="18.381" height="6.355" rx="3.178" transform="translate(118.987 322.506)" fill="#3f3d56" opacity="0.7"/><rect width="28.592" height="6.355" rx="3.178" transform="translate(118.987 338.394)" fill="#6c63ff" opacity="0.3"/><rect width="57.19" height="6.355" rx="3.178" transform="translate(118.987 330.452)" fill="#6c63ff" opacity="0.3"/><path d="M218.611,654.25h-5.244a1.752,1.752,0,0,0-1.773,1.73v.374h-.331a1.752,1.752,0,0,0-1.773,1.73V670.7a1.784,1.784,0,0,0,1.773,1.773h9.121a1.746,1.746,0,0,0,1.725-1.773v-.331h.379a1.746,1.746,0,0,0,1.725-1.773v-8.742Zm0,1.955,3.653,3.653h-3.653Zm2.1,14.5a.358.358,0,0,1-.331.374h-9.121a.39.39,0,0,1-.368-.374V658.084a.358.358,0,0,1,.368-.331h.331v11.215a1.242,1.242,0,0,0,1.426,1.42h7.7Zm2.1-2.1a.352.352,0,0,1-.326.374h-9.121A.39.39,0,0,1,213,668.6V655.98a.358.358,0,0,1,.368-.331h3.84v5.613h5.607Z" transform="translate(-124.334 -329.736)" fill="#6c63ff"/><rect width="18.381" height="6.355" rx="3.178" transform="translate(272.127 184.618)" fill="#3f3d56" opacity="0.7"/><rect width="28.592" height="6.355" rx="3.178" transform="translate(272.127 200.506)" fill="#6c63ff" opacity="0.3"/><rect width="57.19" height="6.355" rx="3.178" transform="translate(272.127 192.559)" fill="#6c63ff" opacity="0.3"/><path d="M500.386,399.991h-6.077a1.875,1.875,0,0,0-1.869,1.875v10.28a1.869,1.869,0,0,0,1.869,1.869H510.2a1.869,1.869,0,0,0,1.869-1.869v-8.192a1.875,1.875,0,0,0-1.869-1.869h-7.946l-1.869-2.1Z" transform="translate(-256.179 -211.255)" fill="#6c63ff"/><rect width="18.381" height="6.355" rx="3.178" transform="translate(423.36 263.41)" fill="#3f3d56" opacity="0.7"/><rect width="28.592" height="6.355" rx="3.178" transform="translate(423.36 279.297)" fill="#6c63ff" opacity="0.3"/><rect width="57.19" height="6.355" rx="3.178" transform="translate(423.36 271.356)" fill="#6c63ff" opacity="0.3"/><path d="M796.661,552.993l-3.615-.171-.214-2.355a.908.908,0,0,0-1-.812l-12.961,1.068a.891.891,0,0,0-.849.956l.924,10.334a.908.908,0,0,0,1,.8l.657-.048-.1,2.008a1,1,0,0,0,.977,1.031l14.467.683a1,1,0,0,0,1.068-.929l.609-11.535a.993.993,0,0,0-.961-1.025Zm-15.551.235-.31,5.906-.769,1.068-.7-7.8v-.048a.475.475,0,0,1,.417-.411l11.439-.934a.432.432,0,0,1,.465.342h0l.112,1.346-9.613-.459A1.015,1.015,0,0,0,781.11,553.228Zm14.633,10.382L792,559.246l-1.639,1.506-3.028-3.541-5.378,5.725.459-8.721h0a.5.5,0,0,1,.534-.4l12.763.62a.465.465,0,0,1,.454.443h0Z" transform="translate(-389.247 -280.996)" fill="#6c63ff"/><path d="M805.669,562.969a1.4,1.4,0,1,0-1.4-1.4A1.4,1.4,0,0,0,805.669,562.969Z" transform="translate(-401.481 -285.893)" fill="#6c63ff"/><rect width="18.381" height="6.355" rx="3.178" transform="translate(424.631 184.618)" fill="#3f3d56" opacity="0.7"/><rect width="28.592" height="6.355" rx="3.178" transform="translate(424.631 200.506)" fill="#6c63ff" opacity="0.3"/><rect width="57.19" height="6.355" rx="3.178" transform="translate(424.631 192.559)" fill="#6c63ff" opacity="0.3"/><circle cx="2.804" cy="2.804" r="2.804" transform="translate(404.413 187.673)" fill="#6c63ff"/><path d="M795.11,404.748l-5.565,3.706-7.711-5.138v-1.874l7.711,5.143,4.432-2.953a3.947,3.947,0,0,1-.053-4.272H781.6a1.88,1.88,0,0,0-1.875,1.875v11.685a1.88,1.88,0,0,0,1.875,1.875H797.5a1.875,1.875,0,0,0,1.869-1.875V404.8a3.936,3.936,0,0,1-4.272-.032Z" transform="translate(-390.046 -210.966)" fill="#6c63ff"/><ellipse cx="13.928" cy="2.676" rx="13.928" ry="2.676" transform="translate(258.221 395.749)" fill="#6c63ff"/><ellipse cx="1.623" cy="2.12" rx="1.623" ry="2.12" transform="translate(270.295 395.167)" fill="#3f3d56"/><ellipse cx="1.623" cy="2.12" rx="1.623" ry="2.12" transform="translate(270.295 392.571)" fill="#3f3d56"/><ellipse cx="1.623" cy="2.12" rx="1.623" ry="2.12" transform="translate(270.295 389.976)" fill="#3f3d56"/><ellipse cx="1.623" cy="2.12" rx="1.623" ry="2.12" transform="translate(270.295 387.381)" fill="#3f3d56"/><ellipse cx="1.623" cy="2.12" rx="1.623" ry="2.12" transform="translate(270.295 384.79)" fill="#3f3d56"/><ellipse cx="1.623" cy="2.12" rx="1.623" ry="2.12" transform="translate(270.295 382.195)" fill="#3f3d56"/><ellipse cx="1.623" cy="2.12" rx="1.623" ry="2.12" transform="translate(270.295 379.6)" fill="#3f3d56"/><path d="M558.449,717.148a7.269,7.269,0,0,0,.6-.892l-4.272-.7,4.6.037a7.792,7.792,0,0,0,.149-6.152l-6.179,3.2,5.7-4.192a7.765,7.765,0,1,0-12.817,8.694,8.066,8.066,0,0,0-.886,1.415l5.532,2.873-5.874-1.976a7.76,7.76,0,0,0,1.25,7.29,7.765,7.765,0,1,0,12.208,0,7.77,7.77,0,0,0,0-9.613Z" transform="translate(-280.464 -353.18)" fill="#6c63ff"/><path d="M544.6,737.021a7.715,7.715,0,0,0,1.661,4.806,7.765,7.765,0,1,0,12.208,0C559.51,740.5,544.6,736.15,544.6,737.021Z" transform="translate(-280.483 -368.251)" opacity="0.1"/><path d="M716.3,413.049a7.313,7.313,0,0,1-.534-1.442c-.053-.571.171-1.324-.337-1.6-.283-.155-.678-.037-.929-.24a1.149,1.149,0,0,1-.272-.641,2.189,2.189,0,0,0-2.03-1.6c.534-1.447,2.5-1.8,3.364-3.076.433-.635.294-1.8-.47-1.81a1.33,1.33,0,0,0-.534.134l-2.846,1.175a14.61,14.61,0,0,0-1.6.742,12.623,12.623,0,0,0-3.786,3.808,16.276,16.276,0,0,0-2.355,4.272,9.611,9.611,0,0,0-.5,2.932v.3c-.464.08-.844.283-1.33.379l-1.106,2.921a3.7,3.7,0,0,1-.721,1.33,6.7,6.7,0,0,1-.78.614,4.513,4.513,0,0,0-1.554,3.936,4.235,4.235,0,0,0-2.489,5.223,4.972,4.972,0,0,0-3.637,3.2,2.364,2.364,0,0,1-.475,1,1.9,1.9,0,0,1-1.266.39c-1.25.08-2.339,1.068-3.466.534a7.056,7.056,0,0,0-4.118-.577,3.086,3.086,0,0,1-.881.08,2.369,2.369,0,0,1-.721-.251,5.584,5.584,0,0,0-1.634-.646,1.516,1.516,0,0,0-1.549.6c-.4-.433-.63-.993-.988-1.458a1.6,1.6,0,0,0-1.506-.721c.374-.336,0-1.009-.5-1.127a6.172,6.172,0,0,0-1.5.053c-1.3,0-2.307-1.2-3.573-1.511-1.164-.283-2.718.059-3.316-.988-.187-.336-.24-.774-.534-1.025a1.944,1.944,0,0,0-.379-.774,2.546,2.546,0,0,0-2.008-.6,8.376,8.376,0,0,0-2.334.4,1.2,1.2,0,0,0-.08-.3,5.922,5.922,0,0,0-2.585-3.172,10.68,10.68,0,0,0-3.022-1.207v-.283a12.039,12.039,0,0,1,.62-3.968c.042-.139.1-.278.144-.417a14.205,14.205,0,0,0,6.408-23.834,3.654,3.654,0,0,0-.112-.854,4.2,4.2,0,0,0-.854-1.666,5.261,5.261,0,0,0-2.964-2.7c-.374-.176-.769-.347-1.186-.534-2.067-.929-4.064-2.3-6.408-2.291-2.136,0-4.2,1.18-6.312,1.137h-.508c-.593-.069-1.3-.208-1.693.246a2.4,2.4,0,0,0-.3.582,1.39,1.39,0,0,1-.107.2h0a2.356,2.356,0,0,1-.272.369h0a9.961,9.961,0,0,1-2.777,1.57,8.476,8.476,0,0,0-4.091,5.666,17.86,17.86,0,0,0,.053,7.177,5.893,5.893,0,0,0,1.517,3.279h0s-7.14,5.079-5.837,5.8c.71.4,3.669-1.479,6.216-3.268.027.107.048.219.08.326a23.5,23.5,0,0,0,1.164,3.338c.534,1.276,1.3,2.67,2.633,3.039a2.856,2.856,0,0,0,.9.1h.235a21.046,21.046,0,0,1-.614,5.8,3.53,3.53,0,0,0-2.185.6,1.756,1.756,0,0,1-.886.47,1.543,1.543,0,0,1-.913-.449,5.18,5.18,0,0,0-6.483.342c-2.585,2.441-2.291,7.2-5.34,9.052-.833.507-1.9.78-2.392,1.629a6.076,6.076,0,0,1-.411.785,2.16,2.16,0,0,1-.726.534,14.131,14.131,0,0,0-2.5,1.442,3.588,3.588,0,0,0-1.437,2.424,4.6,4.6,0,0,0,.438,2.035,19.42,19.42,0,0,0,1.666,3.2,3.4,3.4,0,0,0-.673,1.575c-.214,1.5.5,2.98.582,4.5a17.262,17.262,0,0,1-.588,3.92c-.94,5.095.86,10.253,2.67,15.092a7.784,7.784,0,0,1,.641,2.483c.048,1.6-.854,3.028-1.105,4.587-.534,3.279,1.885,6.366,1.939,9.682,0,1.533-.459,3.087-.075,4.566a15.858,15.858,0,0,0,1.3,2.761c.769,1.634.977,3.487,1.714,5.137a12.321,12.321,0,0,0,3.8,4.529c.924,2.932-.39,6.472,0,9.613q.753-.3,1.522-.534a21.987,21.987,0,0,0,3.364,13.266,30.442,30.442,0,0,1,2.425,3.9,18.323,18.323,0,0,1,.945,3.092q1.34,5.591,2.67,11.172a30.4,30.4,0,0,1,1.239,9.185c-.149,2.136-.694,4.577.63,6.286a4.545,4.545,0,0,1,.8,1.1,2.792,2.792,0,0,1,0,1.453,96.491,96.491,0,0,0-1.324,10.889c-.3.4-.6.806-.871,1.207-2.195,3.2-3.252,7.055-4.107,10.852a131.29,131.29,0,0,0-2.756,22.664,15.157,15.157,0,0,0-2.809,3.423c-1.148,2.136-1.3,4.646-1.42,7.071a2.521,2.521,0,0,0,.128,1.164,2.393,2.393,0,0,0,1.2.9l.662.315c-.144.534-.272,1.068-.385,1.629-.844-.951-2.344-2.457-2.6-1.356a54.358,54.358,0,0,0-1.367,11.215.945.945,0,0,0,1.015,1.132,62.092,62.092,0,0,0,11.113.951c3.017,0,6.029-.246,9.036-.475l3.081-.235a68.187,68.187,0,0,0,9.436-1.169,7.912,7.912,0,0,0,3.792-1.677,3.216,3.216,0,0,0,.822-3.8h0c-.86-1.463-2.868-1.57-4.544-1.805a14.873,14.873,0,0,1-4.764-1.517c-.336-.171-.662-.363-.988-.534a.745.745,0,0,0,.257-.075c1.442-.486,2.59-1.6,3.946-2.27a16.107,16.107,0,0,1,5.111-1.17,11.1,11.1,0,0,0,4.982-1.528,4.379,4.379,0,0,0,2-4.213,2.76,2.76,0,0,0-.086-.331c-.534-1.725-2.4-2.67-4.144-3.1s-3.631-.683-5.041-1.8l-.208-.166c-.118-.1-.24-.2-.369-.3a3,3,0,0,0,.411-1.741,8.674,8.674,0,0,0-1.009-2.67,19.187,19.187,0,0,1-1-5.549c-.5-4.715-1.949-9.266-3.039-13.885-.123-.534-.24-1.068-.357-1.6a33.568,33.568,0,0,1,3.882-6.216,20.3,20.3,0,0,0,3.738-7.354c.224-.823.39-1.655.561-2.494q2.894-14.467,5.468-28.982a24.116,24.116,0,0,0,.486-4.187,12.757,12.757,0,0,0,.721-3.968c.5-1.96,1.009-4.016.6-5.3a51.65,51.65,0,0,1-.593-6.985,26.836,26.836,0,0,0-.288-4.769c-.048-.272-.1-.534-.16-.807q-.048-.24-.1-.4a13.711,13.711,0,0,0-.94-2.6,12.614,12.614,0,0,0-.7-1.447,6.628,6.628,0,0,0-.534-.791,33.113,33.113,0,0,1,3.322.31c.267.038.6.059.764-.16a.784.784,0,0,0,.1-.411,6.807,6.807,0,0,0-.865-3.61,4.956,4.956,0,0,1-1-2.366,3.48,3.48,0,0,1,.294-1.175l1.479-3.973c1.255-3.359.657-7.252,1.308-10.777a63.224,63.224,0,0,0,.972-8.336c.123-2.387.048-4.977-1.388-6.889a7.853,7.853,0,0,1-1.068-1.517,4.493,4.493,0,0,1-.256-1.81q-.037-5.613.224-11.215a110.233,110.233,0,0,0,18.718-2.136,11.756,11.756,0,0,0,2.136-.577,10.785,10.785,0,0,0,2.136-1.351,27.719,27.719,0,0,0,5.826-5.1,17.281,17.281,0,0,0,3.45-8.513,13.887,13.887,0,0,0,3.081-5.34,8.234,8.234,0,0,0,.7-2.59c.037-.919-.566-1.88-.4-2.782a7.361,7.361,0,0,1,2.238-4.048,1.463,1.463,0,0,0,.534-.71,1.132,1.132,0,0,0-.123-.694l-.048-.08c.149-.091.288-.187.432-.283.5-.352.972-.742,1.437-1.121a9.074,9.074,0,0,0,1.864-1.891A3.071,3.071,0,0,0,716.3,413.049Zm-68.522,204.69a1.49,1.49,0,0,0-.379.032,5.116,5.116,0,0,0-1.357.39l-.1.053c.587-1.271,1.143-2.563,1.645-3.877.059-.155.112-.31.171-.47l-.064.876A10.806,10.806,0,0,0,647.782,617.739Z" transform="translate(-314.727 -204.629)" fill="url(#a)"/><path d="M672.912,444.547c.053,2.072.758,4.08.865,6.152-6.1.3-12.133-2.67-18.157-1.752a8.386,8.386,0,0,0,3.129-5,20.774,20.774,0,0,0,.593-7.7,3.538,3.538,0,0,0-.075-.422c-.224-1.015-.807-2.451-.652-3.247.208-1.068,1.2-.849,2.1-.79a80.363,80.363,0,0,1,8.149,1.068c.7.123,7.546,1.832,7.653,1.656a31.878,31.878,0,0,0-2.964,6.1A11.915,11.915,0,0,0,672.912,444.547Z" transform="translate(-332.215 -226.05)" fill="#f09292"/><path d="M790.282,432.5a8.9,8.9,0,0,1-1.864,1.88c-.465.379-.94.769-1.437,1.116a6.142,6.142,0,0,1-3.055,1.244c-1.453.1-4.545-.758-5.447-2a3.615,3.615,0,0,1-.534-2.088,9.549,9.549,0,0,1,.5-2.916,16.242,16.242,0,0,1,2.355-4.272,12.735,12.735,0,0,1,3.786-3.786,14.606,14.606,0,0,1,1.6-.742l2.846-1.164a1.335,1.335,0,0,1,.534-.139c.763,0,.9,1.175.47,1.805-.865,1.271-2.815,1.6-3.364,3.06a2.184,2.184,0,0,1,2.029,1.575,1.127,1.127,0,0,0,.272.635c.251.2.646.086.929.24.507.267.283,1.02.337,1.6a7.189,7.189,0,0,0,.534,1.431A3.038,3.038,0,0,1,790.282,432.5Z" transform="translate(-389.212 -220.411)" fill="#f09292"/><path d="M643.4,824.68a2.175,2.175,0,0,1,1.9-.288,70.5,70.5,0,0,0,10.654.859c.448-2.179-.849-4.272-1.266-6.483a5.743,5.743,0,0,0-.427-1.645,3.653,3.653,0,0,0-2.7-1.6c-1.917-.406-4.919-1.116-5.992.823C644.281,818.645,643.87,822.085,643.4,824.68Z" transform="translate(-326.521 -404.664)" fill="#65617d"/><path d="M696.414,808.571a11.231,11.231,0,0,1-4.983,1.517,16.129,16.129,0,0,0-5.111,1.17c-1.356.673-2.5,1.773-3.947,2.254a8.176,8.176,0,0,1-4.1.064c-1.6-.3-3.343-.892-4.213-2.291a7,7,0,0,1-.593-4.272c.128-1.65.251-3.311.369-4.967a2.348,2.348,0,0,1,.31-1.2c1.17-1.709,4.016.71,5.538.71a10.681,10.681,0,0,0,6.74-2.91,2.077,2.077,0,0,1,.534-.4c.689-.31,1.378.262,1.987.758l.208.166c1.41,1.116,3.3,1.346,5.041,1.8s3.6,1.362,4.144,3.081a2.443,2.443,0,0,1,.085.326A4.411,4.411,0,0,1,696.414,808.571Z" transform="translate(-340.502 -396.796)" fill="#3f3d56"/><path d="M696.414,808.571a11.231,11.231,0,0,1-4.983,1.517,16.129,16.129,0,0,0-5.111,1.17c-1.356.673-2.5,1.773-3.947,2.254a8.176,8.176,0,0,1-4.1.064c-1.6-.3-3.343-.892-4.213-2.291a7,7,0,0,1-.593-4.272c.128-1.65.251-3.311.369-4.967a2.348,2.348,0,0,1,.31-1.2c1.17-1.709,4.016.71,5.538.71a10.681,10.681,0,0,0,6.74-2.91,2.077,2.077,0,0,1,.534-.4c.689-.31,1.378.262,1.987.758l.208.166c1.41,1.116,3.3,1.346,5.041,1.8s3.6,1.362,4.144,3.081a2.443,2.443,0,0,1,.085.326A4.411,4.411,0,0,1,696.414,808.571Z" transform="translate(-340.502 -396.796)" fill="#d15436"/><path d="M696.414,809.126a11.235,11.235,0,0,1-4.983,1.522,16.122,16.122,0,0,0-5.111,1.164c-1.356.673-2.5,1.773-3.947,2.254a8.18,8.18,0,0,1-4.1.064,6.731,6.731,0,0,1-4.213-2.847,7,7,0,0,1-.593-4.272c.128-1.65.251-3.311.369-4.966a2.348,2.348,0,0,1,.31-1.2c1.17-1.709,4.016.71,5.538.71a10.68,10.68,0,0,0,6.74-2.91,2.08,2.08,0,0,1,.534-.4c.689-.31,1.378.261,1.987.758a14.093,14.093,0,0,1-1.693,3.5,7.278,7.278,0,0,1-5.34,3.322,17.23,17.23,0,0,0-3.2.144c-1.02.278-2.013,1.346-1.645,2.36s1.634,1.2,2.67,1.26a11.958,11.958,0,0,0,4.385-.31c.854-.283,1.639-.753,2.467-1.1,3.535-1.463,8.01-.646,10.926-3.124a6.936,6.936,0,0,1,.892-.684C699.18,805.981,697.754,808.224,696.414,809.126Z" transform="translate(-340.502 -396.796)" fill="#e8eaf2"/><path d="M696.414,809.126a11.235,11.235,0,0,1-4.983,1.522,16.122,16.122,0,0,0-5.111,1.164c-1.356.673-2.5,1.773-3.947,2.254a8.18,8.18,0,0,1-4.1.064,6.731,6.731,0,0,1-4.213-2.847,7,7,0,0,1-.593-4.272c.128-1.65.251-3.311.369-4.966a2.348,2.348,0,0,1,.31-1.2c1.17-1.709,4.016.71,5.538.71a10.68,10.68,0,0,0,6.74-2.91,2.08,2.08,0,0,1,.534-.4c.689-.31,1.378.261,1.987.758a14.093,14.093,0,0,1-1.693,3.5,7.278,7.278,0,0,1-5.34,3.322,17.23,17.23,0,0,0-3.2.144c-1.02.278-2.013,1.346-1.645,2.36s1.634,1.2,2.67,1.26a11.958,11.958,0,0,0,4.385-.31c.854-.283,1.639-.753,2.467-1.1,3.535-1.463,8.01-.646,10.926-3.124a6.936,6.936,0,0,1,.892-.684C699.18,805.981,697.754,808.224,696.414,809.126Z" transform="translate(-340.502 -396.796)" fill="none" opacity="0.05"/><path d="M644.263,610.5a21.773,21.773,0,0,0,2.98,16.021,30.2,30.2,0,0,1,2.425,3.883,18,18,0,0,1,.945,3.081l2.67,11.108a30.09,30.09,0,0,1,1.239,9.137c-.149,2.136-.694,4.555.63,6.253a4.529,4.529,0,0,1,.8,1.095,2.749,2.749,0,0,1,0,1.442c-1.356,8.069-2.366,16.5.085,24.3,2.227,7.076,2.355,14.915,4.246,22.082a4.935,4.935,0,0,0,1.169,2.451,3.88,3.88,0,0,0,1.762.833c2.788.668,5.73-.112,8.326-1.314,1.826-.849,3.792-2.334,3.637-4.336a8.733,8.733,0,0,0-1.009-2.67,18.932,18.932,0,0,1-1-5.516c-.5-4.689-1.949-9.218-3.039-13.8s-1.837-9.383-.913-14.008a122.709,122.709,0,0,1,9.009-27.716,3.343,3.343,0,0,1,.828-1.239,8.967,8.967,0,0,0,1.169-.8,3.559,3.559,0,0,0,.534-1.453c.406-1.463,1.6-2.547,2.419-3.829,2.045-3.247,1.4-7.407,1.324-11.242-.075-3.738.459-7.476-.149-11.172s-2.691-7.445-6.243-8.577a13.487,13.487,0,0,0-5.495-.256A108.023,108.023,0,0,0,644.263,610.5Z" transform="translate(-326.721 -306.372)" fill="#696791"/><path d="M644.263,611.5a21.773,21.773,0,0,0,2.98,16.021,30.206,30.206,0,0,1,2.425,3.882,18.008,18.008,0,0,1,.945,3.081l2.67,11.108a30.09,30.09,0,0,1,1.239,9.137c-.149,2.136-.694,4.555.63,6.254a4.525,4.525,0,0,1,.8,1.095,2.749,2.749,0,0,1,0,1.442c-1.356,8.069-2.366,16.5.085,24.3,2.227,7.076,2.355,14.915,4.246,22.082a4.934,4.934,0,0,0,1.17,2.451,3.88,3.88,0,0,0,1.762.833c2.788.668,5.73-.112,8.326-1.314,1.826-.849,3.792-2.334,3.637-4.336a8.729,8.729,0,0,0-1.009-2.67,18.934,18.934,0,0,1-1-5.517c-.5-4.689-1.949-9.218-3.039-13.8s-1.837-9.383-.913-14.008a122.709,122.709,0,0,1,9.009-27.716,3.344,3.344,0,0,1,.828-1.239,8.992,8.992,0,0,0,1.169-.8,3.558,3.558,0,0,0,.534-1.453c.406-1.463,1.6-2.547,2.419-3.829,2.045-3.247,1.4-7.407,1.324-11.242-.075-3.738.459-7.476-.149-11.172s-2.691-7.445-6.243-8.577a13.485,13.485,0,0,0-5.495-.256A108.018,108.018,0,0,0,644.263,611.5Z" transform="translate(-326.721 -306.837)" opacity="0.1"/><path d="M682.926,635.437a23.5,23.5,0,0,1-.486,4.31q-2.579,14.419-5.49,28.838c-.171.833-.336,1.666-.56,2.483a20.174,20.174,0,0,1-3.738,7.316c-8.091,10.088-8.79,24.736-13.18,36.9-.3.822-.593,1.65-.908,2.462a61.783,61.783,0,0,1-2.707,6.04,1.719,1.719,0,0,1-.534.721,1.646,1.646,0,0,1-.881.176,25.794,25.794,0,0,1-11.407-2.6,2.392,2.392,0,0,1-1.213-1.009,2.491,2.491,0,0,1-.128-1.159c.123-2.409.272-4.908,1.421-7.028a15.069,15.069,0,0,1,2.809-3.407,129.432,129.432,0,0,1,2.756-22.547c.854-3.781,1.912-7.6,4.107-10.793,1.6-2.36,3.941-4.689,3.653-7.535-.123-1.25-.646-2.8.369-3.535.443-.326,1.1-.369,1.4-.828a1.6,1.6,0,0,0,.2-.705,17.433,17.433,0,0,0-.363-5.837,31.448,31.448,0,0,1-.87-3.808,4.806,4.806,0,0,1,.956-3.674c.053-2.6,0-5.3.037-7.893a14.5,14.5,0,0,0-.368-4.406c-.192-.678-.5-1.33-.646-2.024-.534-2.494.812-5.484-.8-7.476a10.939,10.939,0,0,0-2.59-1.826,9.458,9.458,0,0,1-3.557-5.111,28.066,28.066,0,0,1-1.015-6.27,6.031,6.031,0,0,1,0-1.351,2.316,2.316,0,0,1,.182-.678c.5-1.127,1.848-1.565,3.049-1.853a98.888,98.888,0,0,1,23.29-2.724c2.905-1.976,4.534-1.266,5.768.822a21.958,21.958,0,0,1,1.639,4.011c.534,1.7.6,11.215,1.143,12.908C684.955,628.57,682.9,633.109,682.926,635.437Z" transform="translate(-325.716 -307.927)" fill="#696791"/><path d="M620.451,495.2c-.214,1.5.5,2.964.582,4.475a17.133,17.133,0,0,1-.588,3.9c-.94,5.063.86,10.195,2.67,15.012a7.693,7.693,0,0,1,.641,2.467c.048,1.57-.854,3.012-1.105,4.566-.534,3.263,1.885,6.328,1.938,9.613,0,1.522-.459,3.071-.075,4.539a15.887,15.887,0,0,0,1.3,2.745c.774,1.6.983,3.471,1.72,5.111,1.33,2.964,4.187,4.9,6.91,6.681,1.543-.534,3.2-1.127,4.069-2.52a6.21,6.21,0,0,0,.71-2.211,56.722,56.722,0,0,0,.534-10.259,63.3,63.3,0,0,0-.443-8.833c-.534-3.738-1.757-7.316-2.627-10.985-1.068-4.619-1.65-9.394-3.354-13.832a47.271,47.271,0,0,0-6.286-10.745c-.934-1.276-1.677-3.1-3.492-2.809A3.808,3.808,0,0,0,620.451,495.2Z" transform="translate(-315.704 -254.176)" fill="#434175"/><path d="M620.451,493.2c-.214,1.5.5,2.964.582,4.475a17.133,17.133,0,0,1-.588,3.9c-.94,5.063.86,10.195,2.67,15.012a7.692,7.692,0,0,1,.641,2.467c.048,1.57-.854,3.012-1.105,4.566-.534,3.263,1.885,6.328,1.938,9.613,0,1.522-.459,3.071-.075,4.539a15.9,15.9,0,0,0,1.3,2.745c.774,1.6.983,3.471,1.72,5.111,1.33,2.964,4.187,4.9,6.91,6.681,1.543-.534,3.2-1.127,4.069-2.521a6.21,6.21,0,0,0,.71-2.211,56.725,56.725,0,0,0,.534-10.259,63.3,63.3,0,0,0-.443-8.833c-.534-3.738-1.757-7.316-2.627-10.985-1.068-4.62-1.65-9.394-3.354-13.832a47.27,47.27,0,0,0-6.286-10.745c-.934-1.276-1.677-3.1-3.492-2.809a3.808,3.808,0,0,0-3.1,3.082Z" transform="translate(-315.704 -253.244)" opacity="0.05"/><path d="M679.032,434.5a31.876,31.876,0,0,0-2.964,6.1,14,14,0,0,1-3.365.406c-4.406,0-7.519-2.5-10.109-5.671-.224-1.015-1.6-1.96-1.463-2.756.208-1.068,1.2-.849,2.1-.79a80.4,80.4,0,0,1,8.149,1.068C672.085,432.943,678.926,434.673,679.032,434.5Z" transform="translate(-334.779 -226.05)" opacity="0.1"/><circle cx="14.104" cy="14.104" r="14.104" transform="translate(323.822 186.364)" fill="#f09292"/><path d="M688.008,609.465c-2.441-.144-4.9-.043-7.348.053a25.157,25.157,0,0,0-4.566.47c-1.853.422-3.583,1.266-5.41,1.794-2.927.849-6.013.886-9.041,1.186a50.387,50.387,0,0,0-5.922.929,2.318,2.318,0,0,1,.182-.678c.5-1.127,1.848-1.565,3.049-1.853a98.88,98.88,0,0,1,23.289-2.724C685.145,606.694,686.774,607.377,688.008,609.465Z" transform="translate(-332.262 -307.947)" opacity="0.1"/><path d="M663.724,461.655c-.614.71-1.442,1.5-2.349,1.266a3.244,3.244,0,0,1-.919-.491c-1.6-1.068-3.621-1.292-5.533-1.6a81.37,81.37,0,0,1-11.4-2.563,11.713,11.713,0,0,0-3.375-.684c-2.387,0-4.507,1.6-6,3.461s-2.563,4.043-4.032,5.928c-1.068,1.346-2.3,2.531-3.273,3.925-2.467,3.519-3,8.112-2.361,12.363s2.334,8.262,4.021,12.219a41.945,41.945,0,0,0,3.279,6.654,15.776,15.776,0,0,0,1.271,9.826,9.794,9.794,0,0,1,1.276,2.921,7.389,7.389,0,0,1-.086,2.136l-.721,5.105c-.219,1.554-.438,3.108-.721,4.657-.534,2.825-1.217,5.874.091,8.448,1.565,3.065-.08,6.99.331,10.409a52.219,52.219,0,0,1,13.746-3.263c3.028-.3,6.115-.336,9.041-1.186,1.826-.534,3.557-1.372,5.41-1.8a25.127,25.127,0,0,1,4.566-.465,54.584,54.584,0,0,1,10.147.225c.267.043.6.064.764-.155a.784.784,0,0,0,.1-.4,6.745,6.745,0,0,0-.865-3.589,4.919,4.919,0,0,1-1-2.355,3.465,3.465,0,0,1,.294-1.17l1.479-3.952c1.255-3.338.657-7.215,1.308-10.718a62.708,62.708,0,0,0,.972-8.293c.123-2.376.048-4.951-1.389-6.852a7.821,7.821,0,0,1-1.068-1.511,4.452,4.452,0,0,1-.257-1.8q-.048-7.135.39-14.269c-1.25-2.248-2.558-4.545-3.808-6.793a28.973,28.973,0,0,1-3.519-8.224c-.39-1.939-.379-3.941-.657-5.9a2.617,2.617,0,0,0-.5-1.383,2.5,2.5,0,0,0-2.008-.593A8.781,8.781,0,0,0,663.724,461.655Z" transform="translate(-317.591 -238.095)" fill="#434175"/><path d="M786.982,446.672a6.139,6.139,0,0,1-3.055,1.244c-1.453.1-4.545-.758-5.447-2a3.614,3.614,0,0,1-.534-2.088,2.619,2.619,0,0,1,.609-.117,15.955,15.955,0,0,1,4.731.192,5.3,5.3,0,0,1,3.669,2.756Z" transform="translate(-389.212 -231.587)" opacity="0.1"/><path d="M703.831,477.5a10.028,10.028,0,0,0,2.969,2.8,9.575,9.575,0,0,0,4.63.71,111.082,111.082,0,0,0,19.348-2.136,12.174,12.174,0,0,0,2.136-.571,11.008,11.008,0,0,0,2.136-1.346,27.473,27.473,0,0,0,5.826-5.079,17.116,17.116,0,0,0,3.45-8.464,13.821,13.821,0,0,0,3.082-5.3,8.143,8.143,0,0,0,.7-2.574c.037-.913-.566-1.869-.4-2.766a7.283,7.283,0,0,1,2.237-4.027,1.462,1.462,0,0,0,.534-.71,1.12,1.12,0,0,0-.123-.689,5.33,5.33,0,0,0-3.674-2.756,15.813,15.813,0,0,0-4.737-.192,10.727,10.727,0,0,0-1.549.417l-1.105,2.9a3.681,3.681,0,0,1-.721,1.324,6.723,6.723,0,0,1-.78.614,4.475,4.475,0,0,0-1.554,3.914,4.208,4.208,0,0,0-2.489,5.191,4.966,4.966,0,0,0-3.637,3.2,2.373,2.373,0,0,1-.475,1,1.954,1.954,0,0,1-1.25.406c-1.25.075-2.339,1.068-3.466.534a7.1,7.1,0,0,0-4.117-.577,3.077,3.077,0,0,1-.881.08,2.357,2.357,0,0,1-.721-.251,5.728,5.728,0,0,0-1.634-.641,1.516,1.516,0,0,0-1.549.6c-.4-.433-.63-.988-.988-1.453a1.6,1.6,0,0,0-1.506-.721c.374-.331,0-1-.5-1.121a6.764,6.764,0,0,0-1.5.053c-1.3,0-2.307-1.191-3.573-1.5-1.164-.283-2.718.059-3.316-.983-.208-.368-.251-.87-.609-1.068a1.175,1.175,0,0,0-.79-.091,7.608,7.608,0,0,0-2.376.721c-1.223,4.806-.582,9.741.347,14.579A12.851,12.851,0,0,0,703.831,477.5Z" transform="translate(-352.987 -231.907)" fill="#434175"/><path d="M701.632,537.107l-6.072,12.251c.657-1.138,2.04-1.6,3.135-2.3a8.3,8.3,0,0,0,2.975-4.027,25.184,25.184,0,0,0,1.148-4.961,4.469,4.469,0,0,0,0-2.569C702.145,535.644,701.92,536.536,701.632,537.107Z" transform="translate(-350.826 -274.403)" opacity="0.1"/><path d="M661.317,555.922a54.542,54.542,0,0,1-4.555,3.556c-3.525,2.809-6.035,6.654-8.486,10.43a16.424,16.424,0,0,0-1.736,3.161c.288.246.716,0,1-.262l4.769-4.187a10.766,10.766,0,0,0,1.6-1.6c.828-1.116,1.2-2.5,1.949-3.674a14.331,14.331,0,0,1,2.9-2.953c1.095-.94,6.125-5.2,4.9-6.852C662.764,553.967,662.038,555.2,661.317,555.922Z" transform="translate(-327.984 -282.809)" opacity="0.1"/><path d="M658.427,456.082a14.3,14.3,0,0,0-5.047-1.661,10.678,10.678,0,0,0-3.2-.23c-.993.123-1.949.507-2.948.534a13.123,13.123,0,0,1-4.1-.86,4.753,4.753,0,0,0-4.059.3,1.756,1.756,0,0,1-.886.47,1.6,1.6,0,0,1-.913-.449,5.2,5.2,0,0,0-6.483.342c-2.585,2.424-2.291,7.161-5.34,9-.833.534-1.9.774-2.392,1.6a6.383,6.383,0,0,1-.411.78,2.138,2.138,0,0,1-.726.534,14.11,14.11,0,0,0-2.5,1.436,3.557,3.557,0,0,0-1.437,2.409,4.557,4.557,0,0,0,.438,2.024A19.022,19.022,0,0,0,636.9,484.141a2.894,2.894,0,0,0,1.939-.6,3.7,3.7,0,0,0,.678-1.116c1.426-2.985,4.1-5.191,5.8-8.01,1.009-1.693,1.661-3.589,2.718-5.255,1.6-2.526,4.026-4.4,6.408-6.205,1.346-1.02,2.836-2.094,4.523-2.024,1.5.064,2.6.144,2.04-1.693A5.875,5.875,0,0,0,658.427,456.082Z" transform="translate(-314.675 -236.063)" fill="#434175"/><path d="M658.427,456.082a14.3,14.3,0,0,0-5.047-1.661,10.678,10.678,0,0,0-3.2-.23c-.993.123-1.949.507-2.948.534a13.123,13.123,0,0,1-4.1-.86,4.753,4.753,0,0,0-4.059.3,1.756,1.756,0,0,1-.886.47,1.6,1.6,0,0,1-.913-.449,5.2,5.2,0,0,0-6.483.342c-2.585,2.424-2.291,7.161-5.34,9-.833.534-1.9.774-2.392,1.6a6.383,6.383,0,0,1-.411.78,2.138,2.138,0,0,1-.726.534,14.11,14.11,0,0,0-2.5,1.436,3.557,3.557,0,0,0-1.437,2.409,4.557,4.557,0,0,0,.438,2.024A19.022,19.022,0,0,0,636.9,484.141a2.894,2.894,0,0,0,1.939-.6,3.7,3.7,0,0,0,.678-1.116c1.426-2.985,4.1-5.191,5.8-8.01,1.009-1.693,1.661-3.589,2.718-5.255,1.6-2.526,4.026-4.4,6.408-6.205,1.346-1.02,2.836-2.094,4.523-2.024,1.5.064,2.6.144,2.04-1.693A5.875,5.875,0,0,0,658.427,456.082Z" transform="translate(-314.675 -236.063)" opacity="0.05"/><path d="M674.762,831.544a7.846,7.846,0,0,1-3.792,1.666,68.2,68.2,0,0,1-9.436,1.17l-3.081.235c-3.007.23-6.019.46-9.036.47a62.584,62.584,0,0,1-11.119-.961,1.216,1.216,0,0,1-.881-.427,1.2,1.2,0,0,1-.133-.7,53.821,53.821,0,0,1,1.367-11.161c.347-1.5,3.044,1.869,3.167,2.013a3.075,3.075,0,0,0,2.451,1.3c3.1.171,6.579-1.714,9.041-3.391a11.857,11.857,0,0,1,1.677-1.042,4.922,4.922,0,0,1,1.357-.384,8.158,8.158,0,0,1,4.614.935c1.853.918,3.477,2.237,5.341,3.2a14.984,14.984,0,0,0,4.764,1.506c1.677.23,3.685.342,4.545,1.794h0A3.234,3.234,0,0,1,674.762,831.544Z" transform="translate(-323.667 -407.107)" fill="#d15436"/><path d="M674.284,832.13a7.848,7.848,0,0,1-3.791,1.666,68.163,68.163,0,0,1-9.437,1.17l-3.081.235c-3.007.23-6.019.459-9.036.47a62.047,62.047,0,0,1-11.119-.961,1.212,1.212,0,0,1-.881-.422,4.952,4.952,0,0,1-.689-1.26c.064-3.738,1.068-7.5,1.923-11.161.347-1.5,3.044,1.869,3.167,2.013a3.075,3.075,0,0,0,2.451,1.3c3.1.171,6.579-1.714,9.042-3.391a11.839,11.839,0,0,1,1.677-1.042,4.914,4.914,0,0,1,1.357-.384c-.4,2.232-3.6,4.929-5.255,5.752-3.343,1.661-7.316.828-11.044,1.025a1.6,1.6,0,0,0-.785.187c-.443.3-.47.934-.459,1.468.032.886.144,1.933.918,2.382a2.637,2.637,0,0,0,1.239.261,175.1,175.1,0,0,0,27.54-.966,15.086,15.086,0,0,0,4.486-1,11.457,11.457,0,0,0,2.6-1.677C676.281,828.712,675.3,831.18,674.284,832.13Z" transform="translate(-323.189 -407.138)" fill="#e8eaf2"/><path d="M674.245,408.726c-.053,1.458.94,4.272-1.789,3.5-1.6-.47-2.083-2.4-4.144-1.971s-2.542,2.975-3.236,4.635a8.86,8.86,0,0,1-6.408,5.191,3.878,3.878,0,0,1-1.768,0c-1.33-.379-2.088-1.752-2.633-3.023a23.56,23.56,0,0,1-1.164-3.322,13.533,13.533,0,0,1-.422-2.435h0a10.43,10.43,0,0,1,0-1.682,13.664,13.664,0,0,1,4.55-8.625,40.325,40.325,0,0,1,8.251-5.57,12.233,12.233,0,0,1,3.044-1.357,10.259,10.259,0,0,1,3.2-.128,11.133,11.133,0,0,1,4.091.961,5.719,5.719,0,0,1,1.437,1.009,4.334,4.334,0,0,1,1.25,2.077c.534,2.136-.844,4.075-1.955,5.768C675.537,405.255,674.314,406.847,674.245,408.726Z" transform="translate(-330.829 -208.408)" fill="#434175"/><path d="M776.863,474.242c-.582-1.469-3.028-5.533-2.323-6.942a18.026,18.026,0,0,1,1.864,3.332C776.863,471.781,776.5,473.308,776.863,474.242Z" transform="translate(-387.568 -242.624)" opacity="0.1"/><path d="M678.571,405.269c1.111-1.693,2.478-3.626,1.954-5.768a4.459,4.459,0,0,0-1.6-2.371,3.883,3.883,0,0,1,.406,1c.534,2.136-.844,4.069-1.955,5.768-.988,1.506-2.211,3.1-2.286,4.977-.053,1.458.945,4.272-1.784,3.5-1.6-.47-2.083-2.4-4.149-1.971s-2.537,2.969-3.236,4.635a8.848,8.848,0,0,1-6.408,5.191,3.875,3.875,0,0,1-1.768,0,2.7,2.7,0,0,1-.833-.411,3.611,3.611,0,0,0,2.013,1.784,3.973,3.973,0,0,0,1.773,0,8.881,8.881,0,0,0,6.408-5.2c.7-1.666,1.153-4.2,3.236-4.63s2.521,1.5,4.149,1.965c2.729.79,1.73-2.04,1.784-3.5C676.36,408.371,677.588,406.775,678.571,405.269Z" transform="translate(-332.816 -209.927)" opacity="0.1"/><path d="M677.169,400.849a11.69,11.69,0,0,1-.833,1.2,14.182,14.182,0,0,1-1.928,2c-.422.363-.854.7-1.3,1.02a20.557,20.557,0,0,1-2.633,1.575,48.85,48.85,0,0,1-8.427,3.017l-5.629,1.64c-.694.534-1.96,1.463-3.354,2.441a13.522,13.522,0,0,1-.422-2.435h0a10.388,10.388,0,0,1,0-1.682,13.662,13.662,0,0,1,4.55-8.625,40.331,40.331,0,0,1,8.251-5.57,12.227,12.227,0,0,1,3.044-1.356,10.256,10.256,0,0,1,3.2-.128,11.132,11.132,0,0,1,4.091.961,5.717,5.717,0,0,1,1.437,1.009,5.424,5.424,0,0,1,.721,1.527A4.331,4.331,0,0,1,677.169,400.849Z" transform="translate(-330.811 -208.408)" opacity="0.1"/><path d="M671.934,397.782a11.7,11.7,0,0,1-.833,1.2,14.188,14.188,0,0,1-1.928,2c-.422.363-.855.7-1.3,1.02a21.152,21.152,0,0,1-2.633,1.575,48.851,48.851,0,0,1-8.427,3.017l-5.629,1.634c-1.965,1.49-8.544,6.36-9.65,5.752-1.3-.716,5.837-5.773,5.837-5.773l.326.251a5.114,5.114,0,0,1-1.826-3.5,17.574,17.574,0,0,1-.053-7.14,8.448,8.448,0,0,1,4.091-5.634,9.687,9.687,0,0,0,2.777-1.565,2.351,2.351,0,0,0,.272-.369,1.129,1.129,0,0,0,.107-.192,2.31,2.31,0,0,1,.3-.582c.39-.448,1.1-.315,1.693-.24h.192a3.016,3.016,0,0,0,.315,0c2.136.048,4.171-1.132,6.312-1.132,2.344,0,4.342,1.357,6.408,2.286.417.187.812.358,1.186.534a5.026,5.026,0,0,1,3.2,3.407A4.24,4.24,0,0,1,671.934,397.782Z" transform="translate(-325.576 -205.719)" fill="#6c63ff"/><path d="M665.428,390.252a.961.961,0,0,1-.224,1.239,1.71,1.71,0,0,1-.886.315,5.969,5.969,0,0,1-.695.053,1.911,1.911,0,0,1-.913-.155,1.14,1.14,0,0,1-.16-.1,2.349,2.349,0,0,0,.272-.368c.053.043.107.032.315,0a4.872,4.872,0,0,0,1.143-.192,1.273,1.273,0,0,0,.427-.208,1.324,1.324,0,0,0,.406-.614Z" transform="translate(-335.444 -206.707)" opacity="0.1"/><path d="M652.86,425.6a2.6,2.6,0,0,0,.977.363,4.425,4.425,0,0,0,.753.123,4.189,4.189,0,0,0,1.843-.534" transform="translate(-330.929 -223.17)" opacity="0.1"/></g><circle cx="86.581" cy="86.581" r="86.581" transform="translate(1053.284 287.751)" fill="#0e0d26"/><text transform="translate(583 697)" fill="#070614" font-size="80" font-family="BaybayinModernScript, Baybayin Modern Script"><tspan x="0" y="0">tungkol sa akin</tspan></text><g transform="translate(1900.75 402.25) rotate(90)"><line x1="101" transform="translate(127.5 712.5)" fill="none" stroke="#747474" stroke-width="1"/><text transform="translate(238 717)" fill="#747474" font-size="11" font-family="Montserrat-SemiBold, Montserrat" font-weight="600"><tspan x="0" y="0">03</tspan></text></g></g></svg>