<svg xmlns="http://www.w3.org/2000/svg" xmlns:xlink="http://www.w3.org/1999/xlink" width="633.5" height="473.808" viewBox="0 0 633.5 473.808"><defs><linearGradient id="a" x1="0.691" y1="-0.148" x2="0.691" y2="0.852" gradientUnits="objectBoundingBox"><stop offset="0" stop-color="gray" stop-opacity="0.251"/><stop offset="0.54" stop-color="gray" stop-opacity="0.122"/><stop offset="1" stop-color="gray" stop-opacity="0.102"/></linearGradient></defs><g transform="translate(-593.5 -159.5)"><text transform="translate(656.5 159.5) rotate(90)" fill="#040410" font-size="300" font-family="Impact"><tspan x="0" y="0">01</tspan></text><g transform="translate(851.731 174.886)"><g transform="translate(6.689 399.35)"><ellipse cx="169.239" cy="29.433" rx="169.239" ry="29.433" fill="#080819"/></g><g transform="translate(0 111.249)"><g opacity="0.19"><line x1="24.978" transform="translate(3.565)" fill="none" stroke="#878999" stroke-miterlimit="10" stroke-width="2"/><line x1="34.49" transform="translate(8.321 11.111)" fill="none" stroke="#878999" stroke-miterlimit="10" stroke-width="2"/><line x1="36.865" transform="translate(0 22.228)" fill="none" stroke="#878999" stroke-miterlimit="10" stroke-width="2"/><line y2="11.666" transform="translate(17.245)" fill="none" stroke="#878999" stroke-miterlimit="10" stroke-width="2"/><line y2="10" transform="translate(27.948 12.228)" fill="none" stroke="#878999" stroke-miterlimit="10" stroke-width="2"/></g><g transform="translate(332.457 138.053)" opacity="0.19"><line x2="24.978" transform="translate(14.268 17.961)" fill="none" stroke="#878999" stroke-miterlimit="10" stroke-width="2"/><line x2="34.49" transform="translate(0 8.977)" fill="none" stroke="#878999" stroke-miterlimit="10" stroke-width="2"/><line x2="36.865" transform="translate(5.947)" fill="none" stroke="#878999" stroke-miterlimit="10" stroke-width="2"/><line y1="9.432" transform="translate(25.566 8.529)" fill="none" stroke="#878999" stroke-miterlimit="10" stroke-width="2"/><line y1="8.081" transform="translate(14.864)" fill="none" stroke="#878999" stroke-miterlimit="10" stroke-width="2"/></g><g transform="translate(17.479 227.228)" opacity="0.19"><line x1="23.754" transform="translate(3.391 17.084)" fill="none" stroke="#878999" stroke-miterlimit="10" stroke-width="2"/><line x1="32.798" transform="translate(7.92 8.542)" fill="none" stroke="#878999" stroke-miterlimit="10" stroke-width="2"/><line x1="35.065" fill="none" stroke="#878999" stroke-miterlimit="10" stroke-width="2"/><line y1="8.97" transform="translate(16.402 8.114)" fill="none" stroke="#878999" stroke-miterlimit="10" stroke-width="2"/><line y1="7.686" transform="translate(26.583)" fill="none" stroke="#878999" stroke-miterlimit="10" stroke-width="2"/></g></g><g transform="translate(58.197)"><path d="M191.821,213.309,87,74.52V213.309Z" transform="translate(-87 -24.671)" fill="#221564"/><path d="M209.414,310.265,199.393,297H87V485.638H209.414Z" transform="translate(-87 -98.328)" fill="#221564"/><path d="M285,498.778H407.414L285,336.69Z" transform="translate(-152.552 -111.468)" fill="#221564"/><rect width="122.414" height="188.638" transform="translate(132.448)" fill="#0d0830"/><path d="M209.414,188.638V0H87V49.849L191.821,188.638Z" transform="translate(-87)" fill="#0d0830"/><path d="M265.041,297H255.02l10.021,13.265Z" transform="translate(-142.627 -98.328)" fill="#0d0830"/><path d="M285,297v26.55L407.414,485.638V297Z" transform="translate(-152.552 -98.328)" fill="#0d0830"/></g><g transform="translate(29.745 116.09)"><path d="M927.592,585.905a25.387,25.387,0,0,0-2.676-6.977,24.454,24.454,0,0,0-4.381-4.8c-4.85-4.4-10.8-8.87-17.232-7.76a23.223,23.223,0,0,0-5.713,2.087c-.937.435-1.88.87-2.843,1.238a14.162,14.162,0,0,1-8.576.749c-1.472-.395-2.843-1.1-4.295-1.545a13.285,13.285,0,0,0-2.107-.455,35.794,35.794,0,0,0,4.074-2.147c7.211-4.415,12.964-12.4,12.161-20.931a34.567,34.567,0,0,0-2.234-8.328l-2.569-7.1c-1.11-3.077-2.261-6.214-4.288-8.77a22.19,22.19,0,0,0-8.783-6.221c-7.124-3.1-14.91-4.187-22.6-5.244l-.535-.074V426.593a5.351,5.351,0,0,0-5.351-5.351h-10.1q-.669-4.094-1.338-8.174c-1.271-7.766-2.589-15.673-6.167-22.663-2.341-4.576-6.067-8.944-11.091-9.84a10.643,10.643,0,0,1-2.883-.669c-1.472-.722-2.274-2.328-3.4-3.512-2.917-3.057-7.659-3.1-11.566-4.682-3.452-1.338-6.275-3.953-9.419-5.94s-7.05-3.4-10.529-2.107a7.082,7.082,0,0,1-.074.756l-2.234-1.03a24.61,24.61,0,0,1-6.8-4.094c-2.482-2.341-3.806-5.445-4.836-8.743-.107-.341-.207-.669-.314-1.037a31.053,31.053,0,0,0,8.321-15.887l.542,1.759a12.16,12.16,0,0,0,.428,1.164,4.562,4.562,0,0,0,1.338,1.893,2.378,2.378,0,0,0,.562.328,2.506,2.506,0,0,0,.575.147,2.159,2.159,0,0,0,.829-.06,3.164,3.164,0,0,0,2.007-1.86,3.8,3.8,0,0,0,.234-.816,4.365,4.365,0,0,0,.047-.508V335a1.339,1.339,0,0,0,0-.335v-.174a1.952,1.952,0,0,0-.067-.395v-.107c-.033-.167-.074-.341-.107-.508v-.127c0-.04-.06-.274-.094-.415s-.047-.181-.067-.274v-.04h0c-.067-.268-.127-.529-.187-.8a22.98,22.98,0,0,1-.368-7.064,75.227,75.227,0,0,1,1.913-10.268l.141-.609c.054-.234.107-.468.154-.709.107-.482.214-.963.314-1.452h0l.241-1.231.181-1.1v-.14a31.733,31.733,0,0,0,.234-7.512h0A15.808,15.808,0,0,0,782.3,292.3c-1.679-1.866-3.893-3.244-5.452-5.2-1.458-1.833-2.281-4.094-3.793-5.893-4.174-4.984-14.89-8.823-21.466-9.492-7.532-.763-19.7,1.164-25.774,5.612-2.248,1.639-3.786,4.014-5.352,6.261-2.876,4.181-6.141,8.355-10.75,10.7-1.739.883-3.733,1.552-4.89,3.09a8.314,8.314,0,0,0-1.3,3.465,69.223,69.223,0,0,0-1.378,13.231h0v1.672a12.177,12.177,0,0,0,1.043,4.836c.107.227.227.448.355.669l.08.141a26.522,26.522,0,0,1,2.141,3.646,4.933,4.933,0,0,1,.328,1.11,8.165,8.165,0,0,1-.187,2.93h0a2.576,2.576,0,0,1-.087.442l-.06.288a.562.562,0,0,1-.054.294c-.053.288-.1.575-.14.856h0a6.022,6.022,0,0,0,.147,2.315,3.07,3.07,0,0,0,1.485,2.007,4.5,4.5,0,0,0,1.2.375c.421.074.849.12,1.264.214a6,6,0,0,1,3.378,1.96,9.092,9.092,0,0,1,.95,1.3q.214.355.4.722a16.33,16.33,0,0,1,1.144,3.024c.174.622.321,1.251.448,1.88.06.281.114.562.16.836s.094.555.134.829h0a2.111,2.111,0,0,0,.535-.107,3.615,3.615,0,0,0,1.84-2.609c.054-.187.1-.368.141-.548.154-.669.314-1.4.468-2.107a31.027,31.027,0,0,0,12.208,13.445c.187.555.368,1.1.529,1.666.876,3.03,1.3,6.2-.221,8.85a9.364,9.364,0,0,1-4.937,3.84,3.344,3.344,0,0,0-1.1-.936c-1.759-.883-3.873.187-5.351,1.505-2.676,2.422-4.856,5.893-8.375,6.689-1.271.294-2.676.234-3.733,1.01a8.7,8.7,0,0,0-1.732,2.274A7.974,7.974,0,0,1,699.7,382.8c-1.224-.06-2.676-.341-3.512.555-.622.669-.669,1.726-1.338,2.361-.9.883-2.368.455-3.619.4a7.231,7.231,0,0,0-5.954,3.412,22.289,22.289,0,0,0-2.676,6.689v.04a4.776,4.776,0,0,0-.488.408,7.04,7.04,0,0,0-1.478,2.395,114.26,114.26,0,0,0-9.432,38.918,4.014,4.014,0,0,1-.428,1.886,9.319,9.319,0,0,1-.983,1.07,3.753,3.753,0,0,0,.535,5.278.463.463,0,0,0,.087.073,4.321,4.321,0,0,1,.716-.95c-.074.308-.141.609-.187.883a23.737,23.737,0,0,0-.074,5.887q.957,13.941,1.92,27.861c.181,2.629.361,5.251.6,7.873q.7,7.619,2.007,15.165a6.546,6.546,0,0,0,.147.669c-5.452,1.732-10.3,4.863-12.342,10.087-.709,1.806-1.03,3.773-1.9,5.505-.957,1.9-2.529,3.418-3.572,5.278-1.8,3.2-1.88,7.117-1.224,10.7a35.552,35.552,0,0,0,10.034,18.322h-.669a10.447,10.447,0,0,0-4.569,1.639c-10.556,6.168-16.589,19.4-14.388,31.48a13.505,13.505,0,0,0,2.769,6.555,10.369,10.369,0,0,0,4.87,2.983,16.842,16.842,0,0,0,3.592.669c8.228.669,16.195-3.144,24.443-3.465a65.546,65.546,0,0,1,8.181.381q5.96.5,11.94.629c6.482.154,10.128-1.572,14.262-6.415a17.4,17.4,0,0,0,2.522-3.973c3.518-.2,7.4-.508,10.214-.736l.04.388c.154,1.338.388,2.876,1.458,3.719a5.092,5.092,0,0,0,2.007.823c6.756,1.659,13.593,3.345,20.549,3.345a86.652,86.652,0,0,0,9.76-.749l12.221-1.411a60.644,60.644,0,0,1,10.5,2.288c3.532,1.2,6.83,2.977,10.282,4.388,8.027,3.251,16.656,4.415,25.205,5.552,1.458.194,3.131.328,4.208-.669,1.391-1.338.93-3.572.535-5.445-.16-.769-.281-1.539-.375-2.315a116.962,116.962,0,0,1,16.884,5.86l.956.422c.281,1.458,1.626,2.622,2.917,4.194a10.5,10.5,0,0,0,1.478,1.833,4.91,4.91,0,0,0,2.12.763,98.877,98.877,0,0,0,27.379,1.237,27.958,27.958,0,0,1,5.646-.194,24.32,24.32,0,0,1,4.08.916l7.74,2.221c5.706,1.632,11.546,3.284,17.466,2.917a22.14,22.14,0,0,0,3.565-.515c4.682-1.084,9.044-3.7,11.292-7.907C930.77,599.23,929.3,592.193,927.592,585.905Z" transform="translate(-646.466 -271.547)" fill="url(#a)"/><path d="M742.041,731.377c-1.411-3.211-2.749-6.9-1.338-10.114a8.589,8.589,0,0,1,4.448-4.181,21.514,21.514,0,0,1,6.02-1.485,84.015,84.015,0,0,1,19.573-.268c.475,3.759-.528,7.572-1.391,11.2-.783,3.345-1.231,3.84-4.682,4.014C762.45,730.668,742.583,732.561,742.041,731.377Z" transform="translate(-677.467 -418.323)" fill="#f09292"/><ellipse cx="95.657" cy="26.757" rx="95.657" ry="26.757" transform="translate(28.499 237.88)" fill="#464353"/><ellipse cx="95.657" cy="26.757" rx="95.657" ry="26.757" transform="translate(28.499 237.88)" opacity="0.1"/><path d="M825.55,429.034a29.748,29.748,0,0,1-15.345,13.94,38.436,38.436,0,0,1-12.181,2.315,34.7,34.7,0,0,1-13.445-1.639c-5.726-2.074-10.482-6.315-14.047-11.258a68.716,68.716,0,0,1-8.154-16.282c-1.124-2.963-2.194-6.121-1.666-9.251,3.445-.783,7.218-1.933,9-4.99,1.519-2.622,1.1-5.766.221-8.763-.247-.85-.535-1.692-.823-2.5-.669-1.94-2.977-5.626-1.338-7.285,1.023-1.05,5.311-1.585,6.79-2.268,4.555-2.1,8.756-5.137,13.76-6.134,4.328-.863,8.8-.054,13.118.843a4.24,4.24,0,0,1,1.619.582,3.905,3.905,0,0,1,1.2,1.806c1.231,3,1.953,6.308,2.943,9.432,1.03,3.271,2.355,6.341,4.836,8.7a24.689,24.689,0,0,0,6.8,4.054l5.927,2.716a7.7,7.7,0,0,1,2.8,1.813,7.1,7.1,0,0,1,1.338,3.639,34,34,0,0,1-3.358,20.536Z" transform="translate(-684.244 -305.648)" fill="#f09292"/><path d="M810.454,387.551a30.771,30.771,0,0,1-37.239,5.525c-.247-.85-.535-1.692-.823-2.5-.669-1.94-2.977-5.626-1.338-7.285,1.024-1.05,5.311-1.585,6.79-2.268,4.555-2.1,8.756-5.137,13.76-6.134,4.328-.863,8.8-.054,13.118.843a4.242,4.242,0,0,1,1.619.582,3.907,3.907,0,0,1,1.2,1.806C808.742,381.136,809.464,384.447,810.454,387.551Z" transform="translate(-687.523 -305.638)" opacity="0.1"/><circle cx="30.771" cy="30.771" r="30.771" transform="translate(69.972 28.505)" fill="#f09292"/><path d="M858.908,477.418,856.38,462.1c-1.278-7.686-2.6-15.519-6.167-22.443-2.348-4.535-6.074-8.857-11.1-9.753a10.747,10.747,0,0,1-2.89-.669c-1.472-.709-2.274-2.3-3.4-3.479-2.917-3.023-7.666-3.07-11.572-4.609-3.452-1.338-6.275-3.913-9.419-5.88s-7.057-3.345-10.536-2.087c-.562,5.987-1.157,12.108-3.7,17.559a26.282,26.282,0,0,1-34.918,12.71,26.662,26.662,0,0,1-4.723-2.843c-5.96-4.488-9.78-11.412-11.559-18.656-.435-1.766-.93-3.793-2.555-4.6-1.759-.883-3.873.187-5.352,1.485-2.676,2.4-4.863,5.84-8.382,6.649-1.271.294-2.676.234-3.733,1a8.507,8.507,0,0,0-1.739,2.254,8.027,8.027,0,0,1-6.843,3.385c-1.224-.06-2.676-.341-3.512.549-.622.669-.669,1.712-1.338,2.335-.9.876-2.368.448-3.626.4a7.315,7.315,0,0,0-5.96,3.345,21.578,21.578,0,0,0-2.676,6.6c7.311,16.282,14,32.583,21.312,48.865a4.221,4.221,0,0,1,.528,2.007,4.851,4.851,0,0,1-.91,2.007c-3.585,5.759-3.472,13-3.077,19.773s.876,13.92-2.147,19.988c-.823,1.666-1.893,3.191-2.676,4.857-1.833,3.779-2.5,15.88-1.445,19.894H863.517c-2.883-7.927-1.786-23.834-1.184-32.249.421-5.887-.669-11.766-1.137-17.653C860.173,500.824,860.9,489.419,858.908,477.418Z" transform="translate(-664.415 -318.278)" fill="#efefef"/><path d="M683.25,531.145a23.691,23.691,0,0,0-.08,5.84l1.92,27.607c.181,2.6.361,5.2.6,7.793.462,5.037,1.151,10.034,2.007,15.024a2.676,2.676,0,0,0,2.743,2.6c8.462,1.793,17.2,1.719,25.841,1.231,13.178-.736,26.336-2.415,39.534-2.127,3.4.074,7.358,0,9.419-2.676s.863-7-1.826-9.164-6.341-2.676-9.793-2.676c-4.569-.047-9.138.6-13.693.334a67.824,67.824,0,0,1-12.322-2.268l-11.372-2.829a43.836,43.836,0,0,1,2.99-9.96c2.234-5.8,4.321-11.793,4.361-18.008s-2.3-12.75-7.358-16.309c-4.187-2.923-9.579-3.465-14.716-3.345-3.712.107-10.127-.783-13.519.669C685.3,524.061,683.751,528.516,683.25,531.145Z" transform="translate(-658.57 -354.478)" fill="#f09292"/><path d="M889.105,629.728c2.228-.849,4.683-.542,7.071-.221,7.686,1.05,15.486,2.127,22.61,5.2a22.2,22.2,0,0,1,8.79,6.161,30.481,30.481,0,0,1,4.288,8.7l2.569,7.037a33.878,33.878,0,0,1,2.241,8.248c.8,8.422-4.957,16.362-12.2,20.737s-15.773,5.933-24.082,7.566-16.65,3.438-24.924,5.351a99.8,99.8,0,0,1-11.726,2.308c-8.857,1-18.115-.475-26.53,2.455-3.345,1.171-6.629,2.91-10.1,3.719a61.534,61.534,0,0,1-6.984,1.064L804.2,709.865a86.767,86.767,0,0,1-9.766.749c-6.957,0-13.8-1.646-20.556-3.291a5.205,5.205,0,0,1-2.007-.809c-1.07-.843-1.3-2.335-1.458-3.686q-1.024-8.97-1.793-17.961c-.161-1.947-.281-4.054.783-5.693,1.338-2.007,3.947-2.636,6.328-3.024a165.183,165.183,0,0,1,30.57-2.114c3.886-3.886,10.295-3.907,15.385-6.02a46.2,46.2,0,0,0,5.425-2.95,70.907,70.907,0,0,1,29.788-9.412,27.55,27.55,0,0,0,6.094-.87c3.94-1.224,7.532-4.555,11.579-3.739.5-1.385.849-3.238,2.007-4.187.575-.488,1.284-.816,1.813-1.338,1.117-1.131,1.217-2.91,1.05-4.489a13.144,13.144,0,0,1-.134-4.736,6.547,6.547,0,0,1,.742-1.652A9.028,9.028,0,0,1,889.105,629.728Z" transform="translate(-686.872 -389.948)" fill="#464353"/><path d="M889.105,629.728c2.228-.849,4.683-.542,7.071-.221,7.686,1.05,15.486,2.127,22.61,5.2a22.2,22.2,0,0,1,8.79,6.161,30.481,30.481,0,0,1,4.288,8.7l2.569,7.037a33.878,33.878,0,0,1,2.241,8.248c.8,8.422-4.957,16.362-12.2,20.737s-15.773,5.933-24.082,7.566-16.65,3.438-24.924,5.351a99.8,99.8,0,0,1-11.726,2.308c-8.857,1-18.115-.475-26.53,2.455-3.345,1.171-6.629,2.91-10.1,3.719a61.534,61.534,0,0,1-6.984,1.064L804.2,709.865a86.767,86.767,0,0,1-9.766.749c-6.957,0-13.8-1.646-20.556-3.291a5.205,5.205,0,0,1-2.007-.809c-1.07-.843-1.3-2.335-1.458-3.686q-1.024-8.97-1.793-17.961c-.161-1.947-.281-4.054.783-5.693,1.338-2.007,3.947-2.636,6.328-3.024a165.183,165.183,0,0,1,30.57-2.114c3.886-3.886,10.295-3.907,15.385-6.02a46.2,46.2,0,0,0,5.425-2.95,70.907,70.907,0,0,1,29.788-9.412,27.55,27.55,0,0,0,6.094-.87c3.94-1.224,7.532-4.555,11.579-3.739.5-1.385.849-3.238,2.007-4.187.575-.488,1.284-.816,1.813-1.338,1.117-1.131,1.217-2.91,1.05-4.489a13.144,13.144,0,0,1-.134-4.736,6.547,6.547,0,0,1,.742-1.652A9.028,9.028,0,0,1,889.105,629.728Z" transform="translate(-686.872 -389.948)" opacity="0.05"/><path d="M717.3,728.825c-4.141,4.8-7.786,6.509-14.268,6.355q-5.98-.14-11.947-.622a66.848,66.848,0,0,0-8.188-.381c-8.255.321-16.221,4.1-24.456,3.438a17.266,17.266,0,0,1-3.592-.669,10.455,10.455,0,0,1-4.876-2.957,13.323,13.323,0,0,1-2.769-6.5,30.6,30.6,0,0,1,14.4-31.179,10.575,10.575,0,0,1,4.576-1.625,10.859,10.859,0,0,1,4.629,1.017l.1.04a35,35,0,0,1,11.465,7.652,6.387,6.387,0,0,0,1.753,1.411,6.058,6.058,0,0,0,2.067.388l8.79.555a20.88,20.88,0,0,1,4.415.609,34.722,34.722,0,0,1,4.642,2.007c4.729,2.114,9.974,2.676,15.084,3.492a2.235,2.235,0,0,1,1.338.535,2.094,2.094,0,0,1,.415.87A17.064,17.064,0,0,1,717.3,728.825Z" transform="translate(-646.562 -411.637)" fill="#d15436"/><path d="M670.917,695.757a52.851,52.851,0,0,0-8.8,11,55.107,55.107,0,0,0-7.164,21.767,40.4,40.4,0,0,0-.073,8.435A10.455,10.455,0,0,1,650.006,734a13.324,13.324,0,0,1-2.769-6.5,30.6,30.6,0,0,1,14.4-31.179,10.577,10.577,0,0,1,4.575-1.626,10.857,10.857,0,0,1,4.629,1.017Z" transform="translate(-646.572 -411.641)" opacity="0.1"/><path d="M927.186,720.537c4.917-.134,10.435-.381,14.047,2.93,3.445,3.131,3.9,8.295,4.127,12.944l.261,5.4a10.781,10.781,0,0,1-.515,4.87c-1.177,2.676-4.408,3.967-7.358,3.813s-5.659-1.445-8.355-2.609a117.741,117.741,0,0,0-22.744-7.164q.381-5.6,1.271-11.144c.408-2.562.475-6.85,2.187-8.977,1.813-2.248,4.174-1.03,6.636-.615a52.948,52.948,0,0,0,10.442.555Z" transform="translate(-732.606 -419.778)" fill="#f09292"/><path d="M716.006,632.756c0,.669-1.05,0-1.144-.716-.736-5.412-5.03-9.873-10.034-12.041s-10.7-2.281-16.121-1.766c-8.194.776-17.392,3.913-20.389,11.572-.709,1.793-1.03,3.733-1.9,5.452-.963,1.887-2.535,3.391-3.579,5.224-1.8,3.171-1.873,7.057-1.224,10.643,1.746,9.566,8.288,17.747,16.215,23.412s17.191,9.051,26.429,12.1a458.724,458.724,0,0,0,74.92,17.894,72,72,0,0,1,12.228,2.522c3.532,1.184,6.836,2.957,10.288,4.348,8.027,3.224,16.663,4.375,25.219,5.505,1.458.187,3.13.321,4.208-.669,1.391-1.291.93-3.539.535-5.391a29,29,0,0,1,3.418-20.576c1.431-2.408,3.291-4.876,3.023-7.666-.321-3.251-3.559-5.552-6.783-6.074s-6.5.248-9.74.669a5.217,5.217,0,0,1-3.311-.328,6.635,6.635,0,0,1-1.325-1.15,14.669,14.669,0,0,0-17.084-2.388c-1.2.669-3.01-.823-4.254-1.385l-14.048-6.368c-16.161-7.311-32.4-14.656-49.5-19.285a10.409,10.409,0,0,1-3.813-1.585c-.849-.669-1.458-1.579-2.241-2.321-1.706-1.612-4.08-2.254-6.127-3.4S715.538,635.05,716.006,632.756Z" transform="translate(-651.358 -386.24)" fill="#464353"/><path d="M1025.841,751.775c-2.248,4.167-6.609,6.763-11.292,7.833a22.2,22.2,0,0,1-3.572.508c-5.92.368-11.766-1.271-17.472-2.89l-7.746-2.181a24.325,24.325,0,0,0-4.081-.91,27.945,27.945,0,0,0-5.646.194,100.258,100.258,0,0,1-27.426-1.231,4.815,4.815,0,0,1-2.12-.756,10.69,10.69,0,0,1-1.479-1.813c-2.107-2.535-4.375-4.014-1.88-7.358,1.438-1.94,4.107-2.91,5.224-5.137s.4-5.392-.261-7.693c-.9-3.177-3.873-4.549-4.937-7.465-.8-2.2.542-4.756,2.555-5.954a10.617,10.617,0,0,1,6.823-.983c2.321.308,4.6.963,6.93,1.144,6.863.549,13.88-2.99,20.469-1,1.452.441,2.823,1.144,4.295,1.532a14.287,14.287,0,0,0,8.582-.742c.963-.361,1.906-.8,2.843-1.224a22.947,22.947,0,0,1,5.719-2.067c6.428-1.1,12.389,3.345,17.238,7.686a24.406,24.406,0,0,1,4.381,4.749,23.839,23.839,0,0,1,2.676,6.91C1027.44,739.119,1028.905,746.089,1025.841,751.775Z" transform="translate(-744.32 -417.837)" fill="#d15436"/><path d="M693.574,460.148a6.98,6.98,0,0,0-1.485,2.375,112.324,112.324,0,0,0-9.432,38.544,3.852,3.852,0,0,1-.435,1.866,8.19,8.19,0,0,1-.983,1.064,3.693,3.693,0,0,0,.441,5.2l.187.147c1.1-2.08,3.746-2.756,6.094-2.937,11.245-.89,22.228,4.341,33.507,3.947-.8-2.749-1.94-5.392-2.589-8.174-2.87-12.355,4.288-25.807-.1-37.708-.876-2.381-2.341-4.723-4.649-5.766a12.383,12.383,0,0,0-2.977-.789c-2.85-.515-8.522-2.716-11.278-1.833-1.017.328-1.418,1.284-2.261,1.86C696.337,458.77,694.638,459.071,693.574,460.148Z" transform="translate(-657.69 -332.575)" fill="#efefef"/><rect width="149.171" height="94.988" rx="7.97" transform="translate(59.604 151.923)" fill="#3f3d56"/><circle cx="4.014" cy="4.014" r="4.014" transform="translate(129.842 195.403)" fill="#fff"/><path d="M753.567,282.687c-2.248,1.625-3.786,3.96-5.351,6.2-2.883,4.141-6.147,8.275-10.756,10.582-1.746.876-3.739,1.538-4.9,3.064a8.269,8.269,0,0,0-1.3,3.432,67.984,67.984,0,0,0-1.378,13.111,14.572,14.572,0,0,0,1.064,6.448c.916,1.873,2.569,3.458,2.91,5.5.261,1.592-.328,3.177-.535,4.776s.154,3.492,1.632,4.254a9.808,9.808,0,0,0,2.475.582c4.448.99,5.94,6.208,6.616,10.522,1.512-.087,2.194-1.819,2.508-3.231l4.636-20.61c.5-2.234,1.338-4.823,3.565-5.606,1.492-.515,3.124,0,4.683.1,6.121.5,11.3-4.228,17.285-5.532a22.074,22.074,0,0,1,5.826-.388c4.723.234,10.215,2.174,11.218,6.582.167.716.268,1.572.937,1.927s1.371.053,2.074,0c3-.3,4.763,3.07,5.626,5.826l3.144,10.034c.468,1.518,1.258,3.3,2.9,3.5,1.518.187,2.81-1.251,3.037-2.676a11.719,11.719,0,0,0-.6-4.335c-1.478-6.589.783-13.332,2.161-19.934s1.625-14.188-3-19.272c-1.679-1.84-3.886-3.211-5.452-5.151-1.458-1.819-2.281-4.054-3.793-5.84-4.181-4.93-14.9-8.736-21.479-9.365C771.815,276.373,759.641,278.279,753.567,282.687Z" transform="translate(-674.082 -273.354)" fill="#3f3d56"/><g transform="translate(55.805 33.516)" opacity="0.1"><path d="M810.162,355.984c-1.646-.2-2.435-2.007-2.9-3.5q-1.572-5.024-3.144-10.034c-.863-2.763-2.629-6.134-5.626-5.826-.669.074-1.458.348-2.074,0s-.769-1.211-.936-1.926c-1-4.415-6.5-6.348-11.218-6.582a22.4,22.4,0,0,0-5.826.381c-6.02,1.338-11.165,6.02-17.285,5.532-1.579-.127-3.211-.609-4.682-.094-2.254.776-3.064,3.345-3.565,5.606l-4.636,20.59c-.314,1.418-1,3.151-2.508,3.231-.669-4.308-2.167-9.526-6.616-10.516a10.491,10.491,0,0,1-2.475-.582,2.909,2.909,0,0,1-1.291-1.438c-.12.622-.261,1.244-.341,1.866-.2,1.592.154,3.492,1.632,4.254a9.809,9.809,0,0,0,2.475.582c4.448.99,5.94,6.208,6.616,10.522,1.512-.087,2.194-1.819,2.508-3.231l4.636-20.61c.5-2.234,1.338-4.823,3.565-5.606,1.492-.515,3.124,0,4.682.1,6.121.5,11.3-4.228,17.285-5.532a22.072,22.072,0,0,1,5.826-.388c4.723.234,10.215,2.174,11.218,6.582.167.716.267,1.572.936,1.927s1.338.053,2.074,0c3-.3,4.763,3.07,5.626,5.826q1.565,5.024,3.144,10.034c.468,1.518,1.258,3.3,2.9,3.5,1.519.187,2.81-1.251,3.037-2.676a9.124,9.124,0,0,0-.4-3.552,2.769,2.769,0,0,1-2.636,1.559Z" transform="translate(-731.576 -323.775)"/><path d="M733.863,346.052c-.341-2.04-2.007-3.626-2.91-5.5a10.967,10.967,0,0,1-.99-4.014c0,.749-.067,1.5-.074,2.254a14.571,14.571,0,0,0,1.064,6.448c.743,1.518,1.967,2.856,2.582,4.4A10.033,10.033,0,0,0,733.863,346.052Z" transform="translate(-729.89 -326.58)"/><path d="M852.944,326.888c-1.217,5.833-3.117,11.773-2.528,17.62.381-4.315,1.639-8.656,2.528-12.937a34.113,34.113,0,0,0,.776-9.92A40.713,40.713,0,0,1,852.944,326.888Z" transform="translate(-769.756 -321.65)"/></g></g><path d="M969.708,127.83a30.316,30.316,0,0,1-31.018,48.584,30.309,30.309,0,1,0,31.018-48.584Z" transform="translate(-713.468 -107.876)" fill="#efefef"/></g><line x1="101" transform="translate(732.5 610.5)" fill="none" stroke="#747474" stroke-width="1"/><text transform="translate(700 615)" fill="#747474" font-size="11" font-family="Montserrat-SemiBold, Montserrat" font-weight="600"><tspan x="0" y="0">01</tspan></text></g></svg>